<mxfile host="app.diagrams.net" modified="2024-01-09T20:19:57.769Z" agent="Mozilla/5.0 (X11; Ubuntu; Linux x86_64; rv:121.0) Gecko/20100101 Firefox/121.0" etag="Dz1FQtnHYyyBMSuyiF_2" version="22.1.17" type="github">
  <diagram name="Page-1" id="0-UlEQoik30xeTsWgtJs">
    <mxGraphModel dx="4531" dy="2226" grid="1" gridSize="10" guides="1" tooltips="1" connect="1" arrows="1" fold="1" page="1" pageScale="1" pageWidth="850" pageHeight="1100" math="0" shadow="0">
      <root>
        <mxCell id="0" />
        <mxCell id="1" parent="0" />
        <mxCell id="Mppwnoug4MWIkZQOMdJh-1" value="users" style="shape=table;startSize=30;container=1;collapsible=1;childLayout=tableLayout;fixedRows=1;rowLines=1;fontStyle=1;align=center;resizeLast=1;swimlaneLine=1;shadow=0;fillColor=#D6D9CE;fontColor=#000000;labelBorderColor=none;labelBackgroundColor=none;fontSize=16;strokeColor=#D6D9CE;strokeWidth=2;" vertex="1" parent="1">
          <mxGeometry x="-540" y="-100" width="390" height="250" as="geometry" />
        </mxCell>
        <mxCell id="Mppwnoug4MWIkZQOMdJh-2" value="" style="shape=tableRow;horizontal=0;startSize=0;swimlaneHead=0;swimlaneBody=0;fillColor=none;collapsible=0;dropTarget=0;points=[[0,0.5],[1,0.5]];portConstraint=eastwest;strokeColor=inherit;top=0;left=0;right=0;bottom=1;swimlaneLine=1;" vertex="1" parent="Mppwnoug4MWIkZQOMdJh-1">
          <mxGeometry y="30" width="390" height="20" as="geometry" />
        </mxCell>
        <mxCell id="Mppwnoug4MWIkZQOMdJh-3" value="PK" style="shape=partialRectangle;overflow=hidden;connectable=0;fillColor=none;strokeColor=inherit;top=0;left=0;bottom=0;right=0;fontStyle=1;swimlaneLine=1;" vertex="1" parent="Mppwnoug4MWIkZQOMdJh-2">
          <mxGeometry width="30" height="20" as="geometry">
            <mxRectangle width="30" height="20" as="alternateBounds" />
          </mxGeometry>
        </mxCell>
        <mxCell id="Mppwnoug4MWIkZQOMdJh-4" value="id CHAR(36) " style="shape=partialRectangle;overflow=hidden;connectable=0;fillColor=none;align=left;strokeColor=inherit;top=0;left=0;bottom=0;right=0;spacingLeft=6;fontStyle=5;swimlaneLine=1;" vertex="1" parent="Mppwnoug4MWIkZQOMdJh-2">
          <mxGeometry x="30" width="360" height="20" as="geometry">
            <mxRectangle width="360" height="20" as="alternateBounds" />
          </mxGeometry>
        </mxCell>
        <mxCell id="Mppwnoug4MWIkZQOMdJh-5" value="" style="shape=tableRow;horizontal=0;startSize=0;swimlaneHead=0;swimlaneBody=0;fillColor=none;collapsible=0;dropTarget=0;points=[[0,0.5],[1,0.5]];portConstraint=eastwest;strokeColor=inherit;top=0;left=0;right=0;bottom=0;swimlaneLine=1;" vertex="1" parent="Mppwnoug4MWIkZQOMdJh-1">
          <mxGeometry y="50" width="390" height="20" as="geometry" />
        </mxCell>
        <mxCell id="Mppwnoug4MWIkZQOMdJh-6" value="" style="shape=partialRectangle;overflow=hidden;connectable=0;fillColor=none;strokeColor=inherit;top=0;left=0;bottom=0;right=0;swimlaneLine=1;" vertex="1" parent="Mppwnoug4MWIkZQOMdJh-5">
          <mxGeometry width="30" height="20" as="geometry">
            <mxRectangle width="30" height="20" as="alternateBounds" />
          </mxGeometry>
        </mxCell>
        <mxCell id="Mppwnoug4MWIkZQOMdJh-7" value="name VARCHAR(64) NOT NULL" style="shape=partialRectangle;overflow=hidden;connectable=0;fillColor=none;align=left;strokeColor=inherit;top=0;left=0;bottom=0;right=0;spacingLeft=6;swimlaneLine=1;" vertex="1" parent="Mppwnoug4MWIkZQOMdJh-5">
          <mxGeometry x="30" width="360" height="20" as="geometry">
            <mxRectangle width="360" height="20" as="alternateBounds" />
          </mxGeometry>
        </mxCell>
        <mxCell id="Mppwnoug4MWIkZQOMdJh-8" value="" style="shape=tableRow;horizontal=0;startSize=0;swimlaneHead=0;swimlaneBody=0;fillColor=none;collapsible=0;dropTarget=0;points=[[0,0.5],[1,0.5]];portConstraint=eastwest;strokeColor=inherit;top=0;left=0;right=0;bottom=0;swimlaneLine=1;" vertex="1" parent="Mppwnoug4MWIkZQOMdJh-1">
          <mxGeometry y="70" width="390" height="30" as="geometry" />
        </mxCell>
        <mxCell id="Mppwnoug4MWIkZQOMdJh-9" value="" style="shape=partialRectangle;overflow=hidden;connectable=0;fillColor=none;strokeColor=inherit;top=0;left=0;bottom=0;right=0;swimlaneLine=1;" vertex="1" parent="Mppwnoug4MWIkZQOMdJh-8">
          <mxGeometry width="30" height="30" as="geometry">
            <mxRectangle width="30" height="30" as="alternateBounds" />
          </mxGeometry>
        </mxCell>
        <mxCell id="Mppwnoug4MWIkZQOMdJh-10" value="email VARCHAR(128) UNIQUE" style="shape=partialRectangle;overflow=hidden;connectable=0;fillColor=none;align=left;strokeColor=inherit;top=0;left=0;bottom=0;right=0;spacingLeft=6;swimlaneLine=1;" vertex="1" parent="Mppwnoug4MWIkZQOMdJh-8">
          <mxGeometry x="30" width="360" height="30" as="geometry">
            <mxRectangle width="360" height="30" as="alternateBounds" />
          </mxGeometry>
        </mxCell>
        <mxCell id="Mppwnoug4MWIkZQOMdJh-11" value="" style="shape=tableRow;horizontal=0;startSize=0;swimlaneHead=0;swimlaneBody=0;fillColor=none;collapsible=0;dropTarget=0;points=[[0,0.5],[1,0.5]];portConstraint=eastwest;strokeColor=inherit;top=0;left=0;right=0;bottom=0;swimlaneLine=1;" vertex="1" parent="Mppwnoug4MWIkZQOMdJh-1">
          <mxGeometry y="100" width="390" height="30" as="geometry" />
        </mxCell>
        <mxCell id="Mppwnoug4MWIkZQOMdJh-12" value="" style="shape=partialRectangle;overflow=hidden;connectable=0;fillColor=none;strokeColor=inherit;top=0;left=0;bottom=0;right=0;swimlaneLine=1;" vertex="1" parent="Mppwnoug4MWIkZQOMdJh-11">
          <mxGeometry width="30" height="30" as="geometry">
            <mxRectangle width="30" height="30" as="alternateBounds" />
          </mxGeometry>
        </mxCell>
        <mxCell id="Mppwnoug4MWIkZQOMdJh-13" value="password CHAR(60) NOT NULL" style="shape=partialRectangle;overflow=hidden;connectable=0;fillColor=none;align=left;strokeColor=inherit;top=0;left=0;bottom=0;right=0;spacingLeft=6;swimlaneLine=1;" vertex="1" parent="Mppwnoug4MWIkZQOMdJh-11">
          <mxGeometry x="30" width="360" height="30" as="geometry">
            <mxRectangle width="360" height="30" as="alternateBounds" />
          </mxGeometry>
        </mxCell>
        <mxCell id="Mppwnoug4MWIkZQOMdJh-14" value="" style="shape=tableRow;horizontal=0;startSize=0;swimlaneHead=0;swimlaneBody=0;fillColor=none;collapsible=0;dropTarget=0;points=[[0,0.5],[1,0.5]];portConstraint=eastwest;strokeColor=inherit;top=0;left=0;right=0;bottom=0;swimlaneLine=1;" vertex="1" parent="Mppwnoug4MWIkZQOMdJh-1">
          <mxGeometry y="130" width="390" height="30" as="geometry" />
        </mxCell>
        <mxCell id="Mppwnoug4MWIkZQOMdJh-15" value="" style="shape=partialRectangle;overflow=hidden;connectable=0;fillColor=none;strokeColor=inherit;top=0;left=0;bottom=0;right=0;swimlaneLine=1;" vertex="1" parent="Mppwnoug4MWIkZQOMdJh-14">
          <mxGeometry width="30" height="30" as="geometry">
            <mxRectangle width="30" height="30" as="alternateBounds" />
          </mxGeometry>
        </mxCell>
        <mxCell id="Mppwnoug4MWIkZQOMdJh-16" value="image_url VARCHAR(128)" style="shape=partialRectangle;overflow=hidden;connectable=0;fillColor=none;align=left;strokeColor=inherit;top=0;left=0;bottom=0;right=0;spacingLeft=6;swimlaneLine=1;" vertex="1" parent="Mppwnoug4MWIkZQOMdJh-14">
          <mxGeometry x="30" width="360" height="30" as="geometry">
            <mxRectangle width="360" height="30" as="alternateBounds" />
          </mxGeometry>
        </mxCell>
        <mxCell id="Mppwnoug4MWIkZQOMdJh-17" value="" style="shape=tableRow;horizontal=0;startSize=0;swimlaneHead=0;swimlaneBody=0;fillColor=none;collapsible=0;dropTarget=0;points=[[0,0.5],[1,0.5]];portConstraint=eastwest;strokeColor=inherit;top=0;left=0;right=0;bottom=0;swimlaneLine=1;" vertex="1" parent="Mppwnoug4MWIkZQOMdJh-1">
          <mxGeometry y="160" width="390" height="30" as="geometry" />
        </mxCell>
        <mxCell id="Mppwnoug4MWIkZQOMdJh-18" value="" style="shape=partialRectangle;overflow=hidden;connectable=0;fillColor=none;strokeColor=inherit;top=0;left=0;bottom=0;right=0;swimlaneLine=1;" vertex="1" parent="Mppwnoug4MWIkZQOMdJh-17">
          <mxGeometry width="30" height="30" as="geometry">
            <mxRectangle width="30" height="30" as="alternateBounds" />
          </mxGeometry>
        </mxCell>
        <mxCell id="Mppwnoug4MWIkZQOMdJh-19" value="is_verified BOOLEAN DEFAULT FALSE" style="shape=partialRectangle;overflow=hidden;connectable=0;fillColor=none;align=left;strokeColor=inherit;top=0;left=0;bottom=0;right=0;spacingLeft=6;swimlaneLine=1;" vertex="1" parent="Mppwnoug4MWIkZQOMdJh-17">
          <mxGeometry x="30" width="360" height="30" as="geometry">
            <mxRectangle width="360" height="30" as="alternateBounds" />
          </mxGeometry>
        </mxCell>
        <mxCell id="Mppwnoug4MWIkZQOMdJh-20" value="" style="shape=tableRow;horizontal=0;startSize=0;swimlaneHead=0;swimlaneBody=0;fillColor=none;collapsible=0;dropTarget=0;points=[[0,0.5],[1,0.5]];portConstraint=eastwest;strokeColor=inherit;top=0;left=0;right=0;bottom=0;swimlaneLine=1;" vertex="1" parent="Mppwnoug4MWIkZQOMdJh-1">
          <mxGeometry y="190" width="390" height="30" as="geometry" />
        </mxCell>
        <mxCell id="Mppwnoug4MWIkZQOMdJh-21" value="" style="shape=partialRectangle;overflow=hidden;connectable=0;fillColor=none;strokeColor=inherit;top=0;left=0;bottom=0;right=0;swimlaneLine=1;" vertex="1" parent="Mppwnoug4MWIkZQOMdJh-20">
          <mxGeometry width="30" height="30" as="geometry">
            <mxRectangle width="30" height="30" as="alternateBounds" />
          </mxGeometry>
        </mxCell>
        <mxCell id="Mppwnoug4MWIkZQOMdJh-22" value="created_at TIMESTAMPTZ DEFAULT CURRENT_TIMESTAMP" style="shape=partialRectangle;overflow=hidden;connectable=0;fillColor=none;align=left;strokeColor=inherit;top=0;left=0;bottom=0;right=0;spacingLeft=6;swimlaneLine=1;" vertex="1" parent="Mppwnoug4MWIkZQOMdJh-20">
          <mxGeometry x="30" width="360" height="30" as="geometry">
            <mxRectangle width="360" height="30" as="alternateBounds" />
          </mxGeometry>
        </mxCell>
        <mxCell id="Mppwnoug4MWIkZQOMdJh-23" value="" style="shape=tableRow;horizontal=0;startSize=0;swimlaneHead=0;swimlaneBody=0;fillColor=none;collapsible=0;dropTarget=0;points=[[0,0.5],[1,0.5]];portConstraint=eastwest;strokeColor=inherit;top=0;left=0;right=0;bottom=0;swimlaneLine=1;" vertex="1" parent="Mppwnoug4MWIkZQOMdJh-1">
          <mxGeometry y="220" width="390" height="30" as="geometry" />
        </mxCell>
        <mxCell id="Mppwnoug4MWIkZQOMdJh-24" value="" style="shape=partialRectangle;overflow=hidden;connectable=0;fillColor=none;strokeColor=inherit;top=0;left=0;bottom=0;right=0;swimlaneLine=1;" vertex="1" parent="Mppwnoug4MWIkZQOMdJh-23">
          <mxGeometry width="30" height="30" as="geometry">
            <mxRectangle width="30" height="30" as="alternateBounds" />
          </mxGeometry>
        </mxCell>
        <mxCell id="Mppwnoug4MWIkZQOMdJh-25" value="updated_at TIMESTAMPTZ" style="shape=partialRectangle;overflow=hidden;connectable=0;fillColor=none;align=left;strokeColor=inherit;top=0;left=0;bottom=0;right=0;spacingLeft=6;swimlaneLine=1;" vertex="1" parent="Mppwnoug4MWIkZQOMdJh-23">
          <mxGeometry x="30" width="360" height="30" as="geometry">
            <mxRectangle width="360" height="30" as="alternateBounds" />
          </mxGeometry>
        </mxCell>
        <mxCell id="Mppwnoug4MWIkZQOMdJh-26" value="households" style="shape=table;startSize=30;container=1;collapsible=1;childLayout=tableLayout;fixedRows=1;rowLines=1;fontStyle=1;align=center;resizeLast=1;swimlaneLine=1;shadow=0;fillColor=#D6D9CE;fontColor=#000000;labelBorderColor=none;labelBackgroundColor=none;fontSize=16;strokeColor=#D6D9CE;strokeWidth=2;" vertex="1" parent="1">
          <mxGeometry x="-560" y="180" width="430" height="210" as="geometry" />
        </mxCell>
        <mxCell id="Mppwnoug4MWIkZQOMdJh-27" value="" style="shape=tableRow;horizontal=0;startSize=0;swimlaneHead=0;swimlaneBody=0;fillColor=none;collapsible=0;dropTarget=0;points=[[0,0.5],[1,0.5]];portConstraint=eastwest;strokeColor=inherit;top=0;left=0;right=0;bottom=1;swimlaneLine=1;" vertex="1" parent="Mppwnoug4MWIkZQOMdJh-26">
          <mxGeometry y="30" width="430" height="30" as="geometry" />
        </mxCell>
        <mxCell id="Mppwnoug4MWIkZQOMdJh-28" value="PK" style="shape=partialRectangle;overflow=hidden;connectable=0;fillColor=none;strokeColor=inherit;top=0;left=0;bottom=0;right=0;fontStyle=1;swimlaneLine=1;" vertex="1" parent="Mppwnoug4MWIkZQOMdJh-27">
          <mxGeometry width="30" height="30" as="geometry">
            <mxRectangle width="30" height="30" as="alternateBounds" />
          </mxGeometry>
        </mxCell>
        <mxCell id="Mppwnoug4MWIkZQOMdJh-29" value="id CHAR(36) " style="shape=partialRectangle;overflow=hidden;connectable=0;fillColor=none;align=left;strokeColor=inherit;top=0;left=0;bottom=0;right=0;spacingLeft=6;fontStyle=5;swimlaneLine=1;" vertex="1" parent="Mppwnoug4MWIkZQOMdJh-27">
          <mxGeometry x="30" width="400" height="30" as="geometry">
            <mxRectangle width="400" height="30" as="alternateBounds" />
          </mxGeometry>
        </mxCell>
        <mxCell id="Mppwnoug4MWIkZQOMdJh-30" value="" style="shape=tableRow;horizontal=0;startSize=0;swimlaneHead=0;swimlaneBody=0;fillColor=none;collapsible=0;dropTarget=0;points=[[0,0.5],[1,0.5]];portConstraint=eastwest;strokeColor=inherit;top=0;left=0;right=0;bottom=0;swimlaneLine=1;" vertex="1" parent="Mppwnoug4MWIkZQOMdJh-26">
          <mxGeometry y="60" width="430" height="30" as="geometry" />
        </mxCell>
        <mxCell id="Mppwnoug4MWIkZQOMdJh-31" value="" style="shape=partialRectangle;overflow=hidden;connectable=0;fillColor=none;strokeColor=inherit;top=0;left=0;bottom=0;right=0;swimlaneLine=1;" vertex="1" parent="Mppwnoug4MWIkZQOMdJh-30">
          <mxGeometry width="30" height="30" as="geometry">
            <mxRectangle width="30" height="30" as="alternateBounds" />
          </mxGeometry>
        </mxCell>
        <mxCell id="Mppwnoug4MWIkZQOMdJh-32" value="name VARCHAR(64)" style="shape=partialRectangle;overflow=hidden;connectable=0;fillColor=none;align=left;strokeColor=inherit;top=0;left=0;bottom=0;right=0;spacingLeft=6;swimlaneLine=1;" vertex="1" parent="Mppwnoug4MWIkZQOMdJh-30">
          <mxGeometry x="30" width="400" height="30" as="geometry">
            <mxRectangle width="400" height="30" as="alternateBounds" />
          </mxGeometry>
        </mxCell>
        <mxCell id="Mppwnoug4MWIkZQOMdJh-33" value="" style="shape=tableRow;horizontal=0;startSize=0;swimlaneHead=0;swimlaneBody=0;fillColor=none;collapsible=0;dropTarget=0;points=[[0,0.5],[1,0.5]];portConstraint=eastwest;strokeColor=inherit;top=0;left=0;right=0;bottom=0;swimlaneLine=1;" vertex="1" parent="Mppwnoug4MWIkZQOMdJh-26">
          <mxGeometry y="90" width="430" height="30" as="geometry" />
        </mxCell>
        <mxCell id="Mppwnoug4MWIkZQOMdJh-34" value="" style="shape=partialRectangle;overflow=hidden;connectable=0;fillColor=none;strokeColor=inherit;top=0;left=0;bottom=0;right=0;swimlaneLine=1;" vertex="1" parent="Mppwnoug4MWIkZQOMdJh-33">
          <mxGeometry width="30" height="30" as="geometry">
            <mxRectangle width="30" height="30" as="alternateBounds" />
          </mxGeometry>
        </mxCell>
        <mxCell id="Mppwnoug4MWIkZQOMdJh-35" value="owner_id CHAR(36)" style="shape=partialRectangle;overflow=hidden;connectable=0;fillColor=none;align=left;strokeColor=inherit;top=0;left=0;bottom=0;right=0;spacingLeft=6;swimlaneLine=1;" vertex="1" parent="Mppwnoug4MWIkZQOMdJh-33">
          <mxGeometry x="30" width="400" height="30" as="geometry">
            <mxRectangle width="400" height="30" as="alternateBounds" />
          </mxGeometry>
        </mxCell>
        <mxCell id="Mppwnoug4MWIkZQOMdJh-36" value="" style="shape=tableRow;horizontal=0;startSize=0;swimlaneHead=0;swimlaneBody=0;fillColor=none;collapsible=0;dropTarget=0;points=[[0,0.5],[1,0.5]];portConstraint=eastwest;strokeColor=inherit;top=0;left=0;right=0;bottom=0;swimlaneLine=1;" vertex="1" parent="Mppwnoug4MWIkZQOMdJh-26">
          <mxGeometry y="120" width="430" height="30" as="geometry" />
        </mxCell>
        <mxCell id="Mppwnoug4MWIkZQOMdJh-37" value="" style="shape=partialRectangle;overflow=hidden;connectable=0;fillColor=none;strokeColor=inherit;top=0;left=0;bottom=0;right=0;swimlaneLine=1;" vertex="1" parent="Mppwnoug4MWIkZQOMdJh-36">
          <mxGeometry width="30" height="30" as="geometry">
            <mxRectangle width="30" height="30" as="alternateBounds" />
          </mxGeometry>
        </mxCell>
        <mxCell id="Mppwnoug4MWIkZQOMdJh-38" value="FOREIGN KEY (owner_id) REFERENCES users(id)" style="shape=partialRectangle;overflow=hidden;connectable=0;fillColor=none;align=left;strokeColor=inherit;top=0;left=0;bottom=0;right=0;spacingLeft=6;swimlaneLine=1;" vertex="1" parent="Mppwnoug4MWIkZQOMdJh-36">
          <mxGeometry x="30" width="400" height="30" as="geometry">
            <mxRectangle width="400" height="30" as="alternateBounds" />
          </mxGeometry>
        </mxCell>
        <mxCell id="Mppwnoug4MWIkZQOMdJh-39" value="" style="shape=tableRow;horizontal=0;startSize=0;swimlaneHead=0;swimlaneBody=0;fillColor=none;collapsible=0;dropTarget=0;points=[[0,0.5],[1,0.5]];portConstraint=eastwest;strokeColor=inherit;top=0;left=0;right=0;bottom=0;swimlaneLine=1;" vertex="1" parent="Mppwnoug4MWIkZQOMdJh-26">
          <mxGeometry y="150" width="430" height="30" as="geometry" />
        </mxCell>
        <mxCell id="Mppwnoug4MWIkZQOMdJh-40" value="" style="shape=partialRectangle;overflow=hidden;connectable=0;fillColor=none;strokeColor=inherit;top=0;left=0;bottom=0;right=0;swimlaneLine=1;" vertex="1" parent="Mppwnoug4MWIkZQOMdJh-39">
          <mxGeometry width="30" height="30" as="geometry">
            <mxRectangle width="30" height="30" as="alternateBounds" />
          </mxGeometry>
        </mxCell>
        <mxCell id="Mppwnoug4MWIkZQOMdJh-41" value="created_at TIMESTAMPTZ DEFAULT CURRENT_TIMESTAMP" style="shape=partialRectangle;overflow=hidden;connectable=0;fillColor=none;align=left;strokeColor=inherit;top=0;left=0;bottom=0;right=0;spacingLeft=6;swimlaneLine=1;" vertex="1" parent="Mppwnoug4MWIkZQOMdJh-39">
          <mxGeometry x="30" width="400" height="30" as="geometry">
            <mxRectangle width="400" height="30" as="alternateBounds" />
          </mxGeometry>
        </mxCell>
        <mxCell id="Mppwnoug4MWIkZQOMdJh-42" value="" style="shape=tableRow;horizontal=0;startSize=0;swimlaneHead=0;swimlaneBody=0;fillColor=none;collapsible=0;dropTarget=0;points=[[0,0.5],[1,0.5]];portConstraint=eastwest;strokeColor=inherit;top=0;left=0;right=0;bottom=0;swimlaneLine=1;" vertex="1" parent="Mppwnoug4MWIkZQOMdJh-26">
          <mxGeometry y="180" width="430" height="30" as="geometry" />
        </mxCell>
        <mxCell id="Mppwnoug4MWIkZQOMdJh-43" value="" style="shape=partialRectangle;overflow=hidden;connectable=0;fillColor=none;strokeColor=inherit;top=0;left=0;bottom=0;right=0;swimlaneLine=1;" vertex="1" parent="Mppwnoug4MWIkZQOMdJh-42">
          <mxGeometry width="30" height="30" as="geometry">
            <mxRectangle width="30" height="30" as="alternateBounds" />
          </mxGeometry>
        </mxCell>
        <mxCell id="Mppwnoug4MWIkZQOMdJh-44" value="updated_at TIMESTAMPTZ" style="shape=partialRectangle;overflow=hidden;connectable=0;fillColor=none;align=left;strokeColor=inherit;top=0;left=0;bottom=0;right=0;spacingLeft=6;swimlaneLine=1;" vertex="1" parent="Mppwnoug4MWIkZQOMdJh-42">
          <mxGeometry x="30" width="400" height="30" as="geometry">
            <mxRectangle width="400" height="30" as="alternateBounds" />
          </mxGeometry>
        </mxCell>
        <mxCell id="Mppwnoug4MWIkZQOMdJh-45" value="user_households" style="shape=table;startSize=30;container=1;collapsible=1;childLayout=tableLayout;fixedRows=1;rowLines=1;fontStyle=1;align=center;resizeLast=1;swimlaneLine=1;shadow=0;fillColor=#D6D9CE;fontColor=#000000;labelBorderColor=none;labelBackgroundColor=none;fontSize=16;strokeColor=#D6D9CE;strokeWidth=2;" vertex="1" parent="1">
          <mxGeometry x="-1030" y="120" width="400" height="150" as="geometry" />
        </mxCell>
        <mxCell id="Mppwnoug4MWIkZQOMdJh-46" value="" style="shape=tableRow;horizontal=0;startSize=0;swimlaneHead=0;swimlaneBody=0;fillColor=none;collapsible=0;dropTarget=0;points=[[0,0.5],[1,0.5]];portConstraint=eastwest;strokeColor=inherit;top=0;left=0;right=0;bottom=0;swimlaneLine=1;" vertex="1" parent="Mppwnoug4MWIkZQOMdJh-45">
          <mxGeometry y="30" width="400" height="30" as="geometry" />
        </mxCell>
        <mxCell id="Mppwnoug4MWIkZQOMdJh-47" value="" style="shape=partialRectangle;overflow=hidden;connectable=0;fillColor=none;strokeColor=inherit;top=0;left=0;bottom=0;right=0;swimlaneLine=1;" vertex="1" parent="Mppwnoug4MWIkZQOMdJh-46">
          <mxGeometry width="30" height="30" as="geometry">
            <mxRectangle width="30" height="30" as="alternateBounds" />
          </mxGeometry>
        </mxCell>
        <mxCell id="Mppwnoug4MWIkZQOMdJh-48" value="user_id CHAR(36)" style="shape=partialRectangle;overflow=hidden;connectable=0;fillColor=none;align=left;strokeColor=inherit;top=0;left=0;bottom=0;right=0;spacingLeft=6;swimlaneLine=1;" vertex="1" parent="Mppwnoug4MWIkZQOMdJh-46">
          <mxGeometry x="30" width="370" height="30" as="geometry">
            <mxRectangle width="370" height="30" as="alternateBounds" />
          </mxGeometry>
        </mxCell>
        <mxCell id="Mppwnoug4MWIkZQOMdJh-49" value="" style="shape=tableRow;horizontal=0;startSize=0;swimlaneHead=0;swimlaneBody=0;fillColor=none;collapsible=0;dropTarget=0;points=[[0,0.5],[1,0.5]];portConstraint=eastwest;strokeColor=inherit;top=0;left=0;right=0;bottom=0;swimlaneLine=1;" vertex="1" parent="Mppwnoug4MWIkZQOMdJh-45">
          <mxGeometry y="60" width="400" height="30" as="geometry" />
        </mxCell>
        <mxCell id="Mppwnoug4MWIkZQOMdJh-50" value="" style="shape=partialRectangle;overflow=hidden;connectable=0;fillColor=none;strokeColor=inherit;top=0;left=0;bottom=0;right=0;swimlaneLine=1;" vertex="1" parent="Mppwnoug4MWIkZQOMdJh-49">
          <mxGeometry width="30" height="30" as="geometry">
            <mxRectangle width="30" height="30" as="alternateBounds" />
          </mxGeometry>
        </mxCell>
        <mxCell id="Mppwnoug4MWIkZQOMdJh-51" value="household_id CHAR(36)" style="shape=partialRectangle;overflow=hidden;connectable=0;fillColor=none;align=left;strokeColor=inherit;top=0;left=0;bottom=0;right=0;spacingLeft=6;swimlaneLine=1;" vertex="1" parent="Mppwnoug4MWIkZQOMdJh-49">
          <mxGeometry x="30" width="370" height="30" as="geometry">
            <mxRectangle width="370" height="30" as="alternateBounds" />
          </mxGeometry>
        </mxCell>
        <mxCell id="Mppwnoug4MWIkZQOMdJh-52" value="" style="shape=tableRow;horizontal=0;startSize=0;swimlaneHead=0;swimlaneBody=0;fillColor=none;collapsible=0;dropTarget=0;points=[[0,0.5],[1,0.5]];portConstraint=eastwest;strokeColor=inherit;top=0;left=0;right=0;bottom=0;swimlaneLine=1;" vertex="1" parent="Mppwnoug4MWIkZQOMdJh-45">
          <mxGeometry y="90" width="400" height="30" as="geometry" />
        </mxCell>
        <mxCell id="Mppwnoug4MWIkZQOMdJh-53" value="" style="shape=partialRectangle;overflow=hidden;connectable=0;fillColor=none;strokeColor=inherit;top=0;left=0;bottom=0;right=0;swimlaneLine=1;" vertex="1" parent="Mppwnoug4MWIkZQOMdJh-52">
          <mxGeometry width="30" height="30" as="geometry">
            <mxRectangle width="30" height="30" as="alternateBounds" />
          </mxGeometry>
        </mxCell>
        <mxCell id="Mppwnoug4MWIkZQOMdJh-54" value="FOREIGN KEY (user_id) REFERENCES users(id)" style="shape=partialRectangle;overflow=hidden;connectable=0;fillColor=none;align=left;strokeColor=inherit;top=0;left=0;bottom=0;right=0;spacingLeft=6;swimlaneLine=1;" vertex="1" parent="Mppwnoug4MWIkZQOMdJh-52">
          <mxGeometry x="30" width="370" height="30" as="geometry">
            <mxRectangle width="370" height="30" as="alternateBounds" />
          </mxGeometry>
        </mxCell>
        <mxCell id="Mppwnoug4MWIkZQOMdJh-55" value="" style="shape=tableRow;horizontal=0;startSize=0;swimlaneHead=0;swimlaneBody=0;fillColor=none;collapsible=0;dropTarget=0;points=[[0,0.5],[1,0.5]];portConstraint=eastwest;strokeColor=inherit;top=0;left=0;right=0;bottom=0;swimlaneLine=1;" vertex="1" parent="Mppwnoug4MWIkZQOMdJh-45">
          <mxGeometry y="120" width="400" height="30" as="geometry" />
        </mxCell>
        <mxCell id="Mppwnoug4MWIkZQOMdJh-56" value="" style="shape=partialRectangle;overflow=hidden;connectable=0;fillColor=none;strokeColor=inherit;top=0;left=0;bottom=0;right=0;swimlaneLine=1;" vertex="1" parent="Mppwnoug4MWIkZQOMdJh-55">
          <mxGeometry width="30" height="30" as="geometry">
            <mxRectangle width="30" height="30" as="alternateBounds" />
          </mxGeometry>
        </mxCell>
        <mxCell id="Mppwnoug4MWIkZQOMdJh-57" value="FOREIGN KEY (household_id) REFERENCES households(id)" style="shape=partialRectangle;overflow=hidden;connectable=0;fillColor=none;align=left;strokeColor=inherit;top=0;left=0;bottom=0;right=0;spacingLeft=6;swimlaneLine=1;" vertex="1" parent="Mppwnoug4MWIkZQOMdJh-55">
          <mxGeometry x="30" width="370" height="30" as="geometry">
            <mxRectangle width="370" height="30" as="alternateBounds" />
          </mxGeometry>
        </mxCell>
        <mxCell id="Mppwnoug4MWIkZQOMdJh-58" value="pets" style="shape=table;startSize=30;container=1;collapsible=1;childLayout=tableLayout;fixedRows=1;rowLines=1;fontStyle=1;align=center;resizeLast=1;swimlaneLine=1;shadow=0;fillColor=#D6D9CE;fontColor=#000000;labelBorderColor=none;labelBackgroundColor=none;fontSize=16;strokeColor=#D6D9CE;strokeWidth=2;" vertex="1" parent="1">
          <mxGeometry x="-200" y="410" width="390" height="330" as="geometry" />
        </mxCell>
        <mxCell id="Mppwnoug4MWIkZQOMdJh-59" value="" style="shape=tableRow;horizontal=0;startSize=0;swimlaneHead=0;swimlaneBody=0;fillColor=none;collapsible=0;dropTarget=0;points=[[0,0.5],[1,0.5]];portConstraint=eastwest;strokeColor=inherit;top=0;left=0;right=0;bottom=1;swimlaneLine=1;" vertex="1" parent="Mppwnoug4MWIkZQOMdJh-58">
          <mxGeometry y="30" width="390" height="30" as="geometry" />
        </mxCell>
        <mxCell id="Mppwnoug4MWIkZQOMdJh-60" value="PK" style="shape=partialRectangle;overflow=hidden;connectable=0;fillColor=none;strokeColor=inherit;top=0;left=0;bottom=0;right=0;fontStyle=1;swimlaneLine=1;" vertex="1" parent="Mppwnoug4MWIkZQOMdJh-59">
          <mxGeometry width="30" height="30" as="geometry">
            <mxRectangle width="30" height="30" as="alternateBounds" />
          </mxGeometry>
        </mxCell>
        <mxCell id="Mppwnoug4MWIkZQOMdJh-61" value="id CHAR(36) " style="shape=partialRectangle;overflow=hidden;connectable=0;fillColor=none;align=left;strokeColor=inherit;top=0;left=0;bottom=0;right=0;spacingLeft=6;fontStyle=5;swimlaneLine=1;" vertex="1" parent="Mppwnoug4MWIkZQOMdJh-59">
          <mxGeometry x="30" width="360" height="30" as="geometry">
            <mxRectangle width="360" height="30" as="alternateBounds" />
          </mxGeometry>
        </mxCell>
        <mxCell id="Mppwnoug4MWIkZQOMdJh-62" value="" style="shape=tableRow;horizontal=0;startSize=0;swimlaneHead=0;swimlaneBody=0;fillColor=none;collapsible=0;dropTarget=0;points=[[0,0.5],[1,0.5]];portConstraint=eastwest;strokeColor=inherit;top=0;left=0;right=0;bottom=0;swimlaneLine=1;" vertex="1" parent="Mppwnoug4MWIkZQOMdJh-58">
          <mxGeometry y="60" width="390" height="30" as="geometry" />
        </mxCell>
        <mxCell id="Mppwnoug4MWIkZQOMdJh-63" value="" style="shape=partialRectangle;overflow=hidden;connectable=0;fillColor=none;strokeColor=inherit;top=0;left=0;bottom=0;right=0;swimlaneLine=1;" vertex="1" parent="Mppwnoug4MWIkZQOMdJh-62">
          <mxGeometry width="30" height="30" as="geometry">
            <mxRectangle width="30" height="30" as="alternateBounds" />
          </mxGeometry>
        </mxCell>
        <mxCell id="Mppwnoug4MWIkZQOMdJh-64" value="name VARCHAR(64) NOT NULL" style="shape=partialRectangle;overflow=hidden;connectable=0;fillColor=none;align=left;strokeColor=inherit;top=0;left=0;bottom=0;right=0;spacingLeft=6;swimlaneLine=1;" vertex="1" parent="Mppwnoug4MWIkZQOMdJh-62">
          <mxGeometry x="30" width="360" height="30" as="geometry">
            <mxRectangle width="360" height="30" as="alternateBounds" />
          </mxGeometry>
        </mxCell>
        <mxCell id="Mppwnoug4MWIkZQOMdJh-65" value="" style="shape=tableRow;horizontal=0;startSize=0;swimlaneHead=0;swimlaneBody=0;fillColor=none;collapsible=0;dropTarget=0;points=[[0,0.5],[1,0.5]];portConstraint=eastwest;strokeColor=inherit;top=0;left=0;right=0;bottom=0;swimlaneLine=1;" vertex="1" parent="Mppwnoug4MWIkZQOMdJh-58">
          <mxGeometry y="90" width="390" height="30" as="geometry" />
        </mxCell>
        <mxCell id="Mppwnoug4MWIkZQOMdJh-66" value="" style="shape=partialRectangle;overflow=hidden;connectable=0;fillColor=none;strokeColor=inherit;top=0;left=0;bottom=0;right=0;swimlaneLine=1;" vertex="1" parent="Mppwnoug4MWIkZQOMdJh-65">
          <mxGeometry width="30" height="30" as="geometry">
            <mxRectangle width="30" height="30" as="alternateBounds" />
          </mxGeometry>
        </mxCell>
        <mxCell id="Mppwnoug4MWIkZQOMdJh-67" value="species VARCHAR(32) NOT NULL" style="shape=partialRectangle;overflow=hidden;connectable=0;fillColor=none;align=left;strokeColor=inherit;top=0;left=0;bottom=0;right=0;spacingLeft=6;swimlaneLine=1;" vertex="1" parent="Mppwnoug4MWIkZQOMdJh-65">
          <mxGeometry x="30" width="360" height="30" as="geometry">
            <mxRectangle width="360" height="30" as="alternateBounds" />
          </mxGeometry>
        </mxCell>
        <mxCell id="Mppwnoug4MWIkZQOMdJh-68" value="" style="shape=tableRow;horizontal=0;startSize=0;swimlaneHead=0;swimlaneBody=0;fillColor=none;collapsible=0;dropTarget=0;points=[[0,0.5],[1,0.5]];portConstraint=eastwest;strokeColor=inherit;top=0;left=0;right=0;bottom=0;swimlaneLine=1;" vertex="1" parent="Mppwnoug4MWIkZQOMdJh-58">
          <mxGeometry y="120" width="390" height="30" as="geometry" />
        </mxCell>
        <mxCell id="Mppwnoug4MWIkZQOMdJh-69" value="" style="shape=partialRectangle;overflow=hidden;connectable=0;fillColor=none;strokeColor=inherit;top=0;left=0;bottom=0;right=0;swimlaneLine=1;" vertex="1" parent="Mppwnoug4MWIkZQOMdJh-68">
          <mxGeometry width="30" height="30" as="geometry">
            <mxRectangle width="30" height="30" as="alternateBounds" />
          </mxGeometry>
        </mxCell>
        <mxCell id="Mppwnoug4MWIkZQOMdJh-70" value="birthdate DATE NOT NULL" style="shape=partialRectangle;overflow=hidden;connectable=0;fillColor=none;align=left;strokeColor=inherit;top=0;left=0;bottom=0;right=0;spacingLeft=6;swimlaneLine=1;" vertex="1" parent="Mppwnoug4MWIkZQOMdJh-68">
          <mxGeometry x="30" width="360" height="30" as="geometry">
            <mxRectangle width="360" height="30" as="alternateBounds" />
          </mxGeometry>
        </mxCell>
        <mxCell id="Mppwnoug4MWIkZQOMdJh-71" value="" style="shape=tableRow;horizontal=0;startSize=0;swimlaneHead=0;swimlaneBody=0;fillColor=none;collapsible=0;dropTarget=0;points=[[0,0.5],[1,0.5]];portConstraint=eastwest;strokeColor=inherit;top=0;left=0;right=0;bottom=0;swimlaneLine=1;" vertex="1" parent="Mppwnoug4MWIkZQOMdJh-58">
          <mxGeometry y="150" width="390" height="30" as="geometry" />
        </mxCell>
        <mxCell id="Mppwnoug4MWIkZQOMdJh-72" value="" style="shape=partialRectangle;overflow=hidden;connectable=0;fillColor=none;strokeColor=inherit;top=0;left=0;bottom=0;right=0;swimlaneLine=1;" vertex="1" parent="Mppwnoug4MWIkZQOMdJh-71">
          <mxGeometry width="30" height="30" as="geometry">
            <mxRectangle width="30" height="30" as="alternateBounds" />
          </mxGeometry>
        </mxCell>
        <mxCell id="Mppwnoug4MWIkZQOMdJh-73" value="image_url VARCHAR(128)" style="shape=partialRectangle;overflow=hidden;connectable=0;fillColor=none;align=left;strokeColor=inherit;top=0;left=0;bottom=0;right=0;spacingLeft=6;swimlaneLine=1;" vertex="1" parent="Mppwnoug4MWIkZQOMdJh-71">
          <mxGeometry x="30" width="360" height="30" as="geometry">
            <mxRectangle width="360" height="30" as="alternateBounds" />
          </mxGeometry>
        </mxCell>
        <mxCell id="Mppwnoug4MWIkZQOMdJh-74" value="" style="shape=tableRow;horizontal=0;startSize=0;swimlaneHead=0;swimlaneBody=0;fillColor=none;collapsible=0;dropTarget=0;points=[[0,0.5],[1,0.5]];portConstraint=eastwest;strokeColor=inherit;top=0;left=0;right=0;bottom=0;swimlaneLine=1;" vertex="1" parent="Mppwnoug4MWIkZQOMdJh-58">
          <mxGeometry y="180" width="390" height="30" as="geometry" />
        </mxCell>
        <mxCell id="Mppwnoug4MWIkZQOMdJh-75" value="" style="shape=partialRectangle;overflow=hidden;connectable=0;fillColor=none;strokeColor=inherit;top=0;left=0;bottom=0;right=0;swimlaneLine=1;" vertex="1" parent="Mppwnoug4MWIkZQOMdJh-74">
          <mxGeometry width="30" height="30" as="geometry">
            <mxRectangle width="30" height="30" as="alternateBounds" />
          </mxGeometry>
        </mxCell>
        <mxCell id="Mppwnoug4MWIkZQOMdJh-76" value="weight SMALLINT NOT NULL" style="shape=partialRectangle;overflow=hidden;connectable=0;fillColor=none;align=left;strokeColor=inherit;top=0;left=0;bottom=0;right=0;spacingLeft=6;swimlaneLine=1;" vertex="1" parent="Mppwnoug4MWIkZQOMdJh-74">
          <mxGeometry x="30" width="360" height="30" as="geometry">
            <mxRectangle width="360" height="30" as="alternateBounds" />
          </mxGeometry>
        </mxCell>
        <mxCell id="Mppwnoug4MWIkZQOMdJh-77" value="" style="shape=tableRow;horizontal=0;startSize=0;swimlaneHead=0;swimlaneBody=0;fillColor=none;collapsible=0;dropTarget=0;points=[[0,0.5],[1,0.5]];portConstraint=eastwest;strokeColor=inherit;top=0;left=0;right=0;bottom=0;swimlaneLine=1;" vertex="1" parent="Mppwnoug4MWIkZQOMdJh-58">
          <mxGeometry y="210" width="390" height="30" as="geometry" />
        </mxCell>
        <mxCell id="Mppwnoug4MWIkZQOMdJh-78" value="" style="shape=partialRectangle;overflow=hidden;connectable=0;fillColor=none;strokeColor=inherit;top=0;left=0;bottom=0;right=0;swimlaneLine=1;" vertex="1" parent="Mppwnoug4MWIkZQOMdJh-77">
          <mxGeometry width="30" height="30" as="geometry">
            <mxRectangle width="30" height="30" as="alternateBounds" />
          </mxGeometry>
        </mxCell>
        <mxCell id="Mppwnoug4MWIkZQOMdJh-79" value="household_id CHAR(36)" style="shape=partialRectangle;overflow=hidden;connectable=0;fillColor=none;align=left;strokeColor=inherit;top=0;left=0;bottom=0;right=0;spacingLeft=6;swimlaneLine=1;" vertex="1" parent="Mppwnoug4MWIkZQOMdJh-77">
          <mxGeometry x="30" width="360" height="30" as="geometry">
            <mxRectangle width="360" height="30" as="alternateBounds" />
          </mxGeometry>
        </mxCell>
        <mxCell id="Mppwnoug4MWIkZQOMdJh-80" value="" style="shape=tableRow;horizontal=0;startSize=0;swimlaneHead=0;swimlaneBody=0;fillColor=none;collapsible=0;dropTarget=0;points=[[0,0.5],[1,0.5]];portConstraint=eastwest;strokeColor=inherit;top=0;left=0;right=0;bottom=0;swimlaneLine=1;" vertex="1" parent="Mppwnoug4MWIkZQOMdJh-58">
          <mxGeometry y="240" width="390" height="30" as="geometry" />
        </mxCell>
        <mxCell id="Mppwnoug4MWIkZQOMdJh-81" value="" style="shape=partialRectangle;overflow=hidden;connectable=0;fillColor=none;strokeColor=inherit;top=0;left=0;bottom=0;right=0;swimlaneLine=1;" vertex="1" parent="Mppwnoug4MWIkZQOMdJh-80">
          <mxGeometry width="30" height="30" as="geometry">
            <mxRectangle width="30" height="30" as="alternateBounds" />
          </mxGeometry>
        </mxCell>
        <mxCell id="Mppwnoug4MWIkZQOMdJh-82" value="created_at TIMESTAMPTZ DEFAULT CURRENT_TIMESTAMP" style="shape=partialRectangle;overflow=hidden;connectable=0;fillColor=none;align=left;strokeColor=inherit;top=0;left=0;bottom=0;right=0;spacingLeft=6;swimlaneLine=1;" vertex="1" parent="Mppwnoug4MWIkZQOMdJh-80">
          <mxGeometry x="30" width="360" height="30" as="geometry">
            <mxRectangle width="360" height="30" as="alternateBounds" />
          </mxGeometry>
        </mxCell>
        <mxCell id="Mppwnoug4MWIkZQOMdJh-83" value="" style="shape=tableRow;horizontal=0;startSize=0;swimlaneHead=0;swimlaneBody=0;fillColor=none;collapsible=0;dropTarget=0;points=[[0,0.5],[1,0.5]];portConstraint=eastwest;strokeColor=inherit;top=0;left=0;right=0;bottom=0;swimlaneLine=1;" vertex="1" parent="Mppwnoug4MWIkZQOMdJh-58">
          <mxGeometry y="270" width="390" height="30" as="geometry" />
        </mxCell>
        <mxCell id="Mppwnoug4MWIkZQOMdJh-84" value="" style="shape=partialRectangle;overflow=hidden;connectable=0;fillColor=none;strokeColor=inherit;top=0;left=0;bottom=0;right=0;swimlaneLine=1;" vertex="1" parent="Mppwnoug4MWIkZQOMdJh-83">
          <mxGeometry width="30" height="30" as="geometry">
            <mxRectangle width="30" height="30" as="alternateBounds" />
          </mxGeometry>
        </mxCell>
        <mxCell id="Mppwnoug4MWIkZQOMdJh-85" value="updated_at TIMESTAMPTZ" style="shape=partialRectangle;overflow=hidden;connectable=0;fillColor=none;align=left;strokeColor=inherit;top=0;left=0;bottom=0;right=0;spacingLeft=6;swimlaneLine=1;" vertex="1" parent="Mppwnoug4MWIkZQOMdJh-83">
          <mxGeometry x="30" width="360" height="30" as="geometry">
            <mxRectangle width="360" height="30" as="alternateBounds" />
          </mxGeometry>
        </mxCell>
        <mxCell id="Mppwnoug4MWIkZQOMdJh-86" value="" style="shape=tableRow;horizontal=0;startSize=0;swimlaneHead=0;swimlaneBody=0;fillColor=none;collapsible=0;dropTarget=0;points=[[0,0.5],[1,0.5]];portConstraint=eastwest;strokeColor=inherit;top=0;left=0;right=0;bottom=0;swimlaneLine=1;" vertex="1" parent="Mppwnoug4MWIkZQOMdJh-58">
          <mxGeometry y="300" width="390" height="30" as="geometry" />
        </mxCell>
        <mxCell id="Mppwnoug4MWIkZQOMdJh-87" value="" style="shape=partialRectangle;overflow=hidden;connectable=0;fillColor=none;strokeColor=inherit;top=0;left=0;bottom=0;right=0;swimlaneLine=1;" vertex="1" parent="Mppwnoug4MWIkZQOMdJh-86">
          <mxGeometry width="30" height="30" as="geometry">
            <mxRectangle width="30" height="30" as="alternateBounds" />
          </mxGeometry>
        </mxCell>
        <mxCell id="Mppwnoug4MWIkZQOMdJh-88" value="FOREIGN KEY (household_id) REFERENCES households(id)" style="shape=partialRectangle;overflow=hidden;connectable=0;fillColor=none;align=left;strokeColor=inherit;top=0;left=0;bottom=0;right=0;spacingLeft=6;swimlaneLine=1;" vertex="1" parent="Mppwnoug4MWIkZQOMdJh-86">
          <mxGeometry x="30" width="360" height="30" as="geometry">
            <mxRectangle width="360" height="30" as="alternateBounds" />
          </mxGeometry>
        </mxCell>
        <mxCell id="Mppwnoug4MWIkZQOMdJh-89" value="dosage_units" style="shape=table;startSize=30;container=1;collapsible=1;childLayout=tableLayout;fixedRows=1;rowLines=0;fontStyle=1;align=center;resizeLast=1;swimlaneLine=1;fillColor=#D6D9CE;fontColor=#000000;labelBorderColor=none;labelBackgroundColor=none;fontSize=16;strokeColor=#D6D9CE;strokeWidth=2;" vertex="1" parent="1">
          <mxGeometry x="1070" y="210" width="170" height="90" as="geometry" />
        </mxCell>
        <mxCell id="Mppwnoug4MWIkZQOMdJh-90" value="" style="shape=tableRow;horizontal=0;startSize=0;swimlaneHead=0;swimlaneBody=0;fillColor=none;collapsible=0;dropTarget=0;points=[[0,0.5],[1,0.5]];portConstraint=eastwest;strokeColor=inherit;top=0;left=0;right=0;bottom=1;swimlaneLine=1;" vertex="1" parent="Mppwnoug4MWIkZQOMdJh-89">
          <mxGeometry y="30" width="170" height="30" as="geometry" />
        </mxCell>
        <mxCell id="Mppwnoug4MWIkZQOMdJh-91" value="PK" style="shape=partialRectangle;overflow=hidden;connectable=0;fillColor=none;strokeColor=inherit;top=0;left=0;bottom=0;right=0;fontStyle=1;swimlaneLine=1;" vertex="1" parent="Mppwnoug4MWIkZQOMdJh-90">
          <mxGeometry width="30" height="30" as="geometry">
            <mxRectangle width="30" height="30" as="alternateBounds" />
          </mxGeometry>
        </mxCell>
        <mxCell id="Mppwnoug4MWIkZQOMdJh-92" value="id CHAR(36) " style="shape=partialRectangle;overflow=hidden;connectable=0;fillColor=none;align=left;strokeColor=inherit;top=0;left=0;bottom=0;right=0;spacingLeft=6;fontStyle=5;swimlaneLine=1;" vertex="1" parent="Mppwnoug4MWIkZQOMdJh-90">
          <mxGeometry x="30" width="140" height="30" as="geometry">
            <mxRectangle width="140" height="30" as="alternateBounds" />
          </mxGeometry>
        </mxCell>
        <mxCell id="Mppwnoug4MWIkZQOMdJh-93" value="" style="shape=tableRow;horizontal=0;startSize=0;swimlaneHead=0;swimlaneBody=0;fillColor=none;collapsible=0;dropTarget=0;points=[[0,0.5],[1,0.5]];portConstraint=eastwest;strokeColor=inherit;top=0;left=0;right=0;bottom=0;swimlaneLine=1;" vertex="1" parent="Mppwnoug4MWIkZQOMdJh-89">
          <mxGeometry y="60" width="170" height="30" as="geometry" />
        </mxCell>
        <mxCell id="Mppwnoug4MWIkZQOMdJh-94" value="" style="shape=partialRectangle;overflow=hidden;connectable=0;fillColor=none;strokeColor=inherit;top=0;left=0;bottom=0;right=0;swimlaneLine=1;" vertex="1" parent="Mppwnoug4MWIkZQOMdJh-93">
          <mxGeometry width="30" height="30" as="geometry">
            <mxRectangle width="30" height="30" as="alternateBounds" />
          </mxGeometry>
        </mxCell>
        <mxCell id="Mppwnoug4MWIkZQOMdJh-95" value="name VARCHAR(64)" style="shape=partialRectangle;overflow=hidden;connectable=0;fillColor=none;align=left;strokeColor=inherit;top=0;left=0;bottom=0;right=0;spacingLeft=6;swimlaneLine=1;" vertex="1" parent="Mppwnoug4MWIkZQOMdJh-93">
          <mxGeometry x="30" width="140" height="30" as="geometry">
            <mxRectangle width="140" height="30" as="alternateBounds" />
          </mxGeometry>
        </mxCell>
        <mxCell id="Mppwnoug4MWIkZQOMdJh-96" value="medications" style="shape=table;startSize=30;container=1;collapsible=1;childLayout=tableLayout;fixedRows=1;rowLines=1;fontStyle=1;align=center;resizeLast=1;swimlaneLine=1;fillColor=#D6D9CE;fontColor=#000000;labelBorderColor=none;labelBackgroundColor=none;fontSize=16;strokeColor=#D6D9CE;strokeWidth=2;" vertex="1" parent="1">
          <mxGeometry x="550" y="90" width="470" height="390" as="geometry" />
        </mxCell>
        <mxCell id="Mppwnoug4MWIkZQOMdJh-97" value="" style="shape=tableRow;horizontal=0;startSize=0;swimlaneHead=0;swimlaneBody=0;fillColor=none;collapsible=0;dropTarget=0;points=[[0,0.5],[1,0.5]];portConstraint=eastwest;strokeColor=inherit;top=0;left=0;right=0;bottom=1;swimlaneLine=1;" vertex="1" parent="Mppwnoug4MWIkZQOMdJh-96">
          <mxGeometry y="30" width="470" height="30" as="geometry" />
        </mxCell>
        <mxCell id="Mppwnoug4MWIkZQOMdJh-98" value="PK" style="shape=partialRectangle;overflow=hidden;connectable=0;fillColor=none;strokeColor=inherit;top=0;left=0;bottom=0;right=0;fontStyle=1;swimlaneLine=1;" vertex="1" parent="Mppwnoug4MWIkZQOMdJh-97">
          <mxGeometry width="30" height="30" as="geometry">
            <mxRectangle width="30" height="30" as="alternateBounds" />
          </mxGeometry>
        </mxCell>
        <mxCell id="Mppwnoug4MWIkZQOMdJh-99" value="id CHAR(36) " style="shape=partialRectangle;overflow=hidden;connectable=0;fillColor=none;align=left;strokeColor=inherit;top=0;left=0;bottom=0;right=0;spacingLeft=6;fontStyle=5;swimlaneLine=1;" vertex="1" parent="Mppwnoug4MWIkZQOMdJh-97">
          <mxGeometry x="30" width="440" height="30" as="geometry">
            <mxRectangle width="440" height="30" as="alternateBounds" />
          </mxGeometry>
        </mxCell>
        <mxCell id="Mppwnoug4MWIkZQOMdJh-100" value="" style="shape=tableRow;horizontal=0;startSize=0;swimlaneHead=0;swimlaneBody=0;fillColor=none;collapsible=0;dropTarget=0;points=[[0,0.5],[1,0.5]];portConstraint=eastwest;strokeColor=inherit;top=0;left=0;right=0;bottom=0;swimlaneLine=1;" vertex="1" parent="Mppwnoug4MWIkZQOMdJh-96">
          <mxGeometry y="60" width="470" height="30" as="geometry" />
        </mxCell>
        <mxCell id="Mppwnoug4MWIkZQOMdJh-101" value="" style="shape=partialRectangle;overflow=hidden;connectable=0;fillColor=none;strokeColor=inherit;top=0;left=0;bottom=0;right=0;swimlaneLine=1;" vertex="1" parent="Mppwnoug4MWIkZQOMdJh-100">
          <mxGeometry width="30" height="30" as="geometry">
            <mxRectangle width="30" height="30" as="alternateBounds" />
          </mxGeometry>
        </mxCell>
        <mxCell id="Mppwnoug4MWIkZQOMdJh-102" value="name VARCHAR(64)" style="shape=partialRectangle;overflow=hidden;connectable=0;fillColor=none;align=left;strokeColor=inherit;top=0;left=0;bottom=0;right=0;spacingLeft=6;swimlaneLine=1;" vertex="1" parent="Mppwnoug4MWIkZQOMdJh-100">
          <mxGeometry x="30" width="440" height="30" as="geometry">
            <mxRectangle width="440" height="30" as="alternateBounds" />
          </mxGeometry>
        </mxCell>
        <mxCell id="Mppwnoug4MWIkZQOMdJh-103" value="" style="shape=tableRow;horizontal=0;startSize=0;swimlaneHead=0;swimlaneBody=0;fillColor=none;collapsible=0;dropTarget=0;points=[[0,0.5],[1,0.5]];portConstraint=eastwest;strokeColor=inherit;top=0;left=0;right=0;bottom=0;swimlaneLine=1;" vertex="1" parent="Mppwnoug4MWIkZQOMdJh-96">
          <mxGeometry y="90" width="470" height="30" as="geometry" />
        </mxCell>
        <mxCell id="Mppwnoug4MWIkZQOMdJh-104" value="" style="shape=partialRectangle;overflow=hidden;connectable=0;fillColor=none;strokeColor=inherit;top=0;left=0;bottom=0;right=0;swimlaneLine=1;" vertex="1" parent="Mppwnoug4MWIkZQOMdJh-103">
          <mxGeometry width="30" height="30" as="geometry">
            <mxRectangle width="30" height="30" as="alternateBounds" />
          </mxGeometry>
        </mxCell>
        <mxCell id="Mppwnoug4MWIkZQOMdJh-105" value="pet_id CHAR(36)" style="shape=partialRectangle;overflow=hidden;connectable=0;fillColor=none;align=left;strokeColor=inherit;top=0;left=0;bottom=0;right=0;spacingLeft=6;swimlaneLine=1;" vertex="1" parent="Mppwnoug4MWIkZQOMdJh-103">
          <mxGeometry x="30" width="440" height="30" as="geometry">
            <mxRectangle width="440" height="30" as="alternateBounds" />
          </mxGeometry>
        </mxCell>
        <mxCell id="Mppwnoug4MWIkZQOMdJh-106" value="" style="shape=tableRow;horizontal=0;startSize=0;swimlaneHead=0;swimlaneBody=0;fillColor=none;collapsible=0;dropTarget=0;points=[[0,0.5],[1,0.5]];portConstraint=eastwest;strokeColor=inherit;top=0;left=0;right=0;bottom=0;swimlaneLine=1;" vertex="1" parent="Mppwnoug4MWIkZQOMdJh-96">
          <mxGeometry y="120" width="470" height="30" as="geometry" />
        </mxCell>
        <mxCell id="Mppwnoug4MWIkZQOMdJh-107" value="" style="shape=partialRectangle;overflow=hidden;connectable=0;fillColor=none;strokeColor=inherit;top=0;left=0;bottom=0;right=0;swimlaneLine=1;" vertex="1" parent="Mppwnoug4MWIkZQOMdJh-106">
          <mxGeometry width="30" height="30" as="geometry">
            <mxRectangle width="30" height="30" as="alternateBounds" />
          </mxGeometry>
        </mxCell>
        <mxCell id="Mppwnoug4MWIkZQOMdJh-108" value="dosage_amount VARCHAR(64) NOT NULL" style="shape=partialRectangle;overflow=hidden;connectable=0;fillColor=none;align=left;strokeColor=inherit;top=0;left=0;bottom=0;right=0;spacingLeft=6;swimlaneLine=1;" vertex="1" parent="Mppwnoug4MWIkZQOMdJh-106">
          <mxGeometry x="30" width="440" height="30" as="geometry">
            <mxRectangle width="440" height="30" as="alternateBounds" />
          </mxGeometry>
        </mxCell>
        <mxCell id="Mppwnoug4MWIkZQOMdJh-109" value="" style="shape=tableRow;horizontal=0;startSize=0;swimlaneHead=0;swimlaneBody=0;fillColor=none;collapsible=0;dropTarget=0;points=[[0,0.5],[1,0.5]];portConstraint=eastwest;strokeColor=inherit;top=0;left=0;right=0;bottom=0;swimlaneLine=1;" vertex="1" parent="Mppwnoug4MWIkZQOMdJh-96">
          <mxGeometry y="150" width="470" height="30" as="geometry" />
        </mxCell>
        <mxCell id="Mppwnoug4MWIkZQOMdJh-110" value="" style="shape=partialRectangle;overflow=hidden;connectable=0;fillColor=none;strokeColor=inherit;top=0;left=0;bottom=0;right=0;swimlaneLine=1;" vertex="1" parent="Mppwnoug4MWIkZQOMdJh-109">
          <mxGeometry width="30" height="30" as="geometry">
            <mxRectangle width="30" height="30" as="alternateBounds" />
          </mxGeometry>
        </mxCell>
        <mxCell id="Mppwnoug4MWIkZQOMdJh-111" value="dosage_unit CHAR(36)" style="shape=partialRectangle;overflow=hidden;connectable=0;fillColor=none;align=left;strokeColor=inherit;top=0;left=0;bottom=0;right=0;spacingLeft=6;swimlaneLine=1;" vertex="1" parent="Mppwnoug4MWIkZQOMdJh-109">
          <mxGeometry x="30" width="440" height="30" as="geometry">
            <mxRectangle width="440" height="30" as="alternateBounds" />
          </mxGeometry>
        </mxCell>
        <mxCell id="Mppwnoug4MWIkZQOMdJh-112" value="" style="shape=tableRow;horizontal=0;startSize=0;swimlaneHead=0;swimlaneBody=0;fillColor=none;collapsible=0;dropTarget=0;points=[[0,0.5],[1,0.5]];portConstraint=eastwest;strokeColor=inherit;top=0;left=0;right=0;bottom=0;swimlaneLine=1;" vertex="1" parent="Mppwnoug4MWIkZQOMdJh-96">
          <mxGeometry y="180" width="470" height="30" as="geometry" />
        </mxCell>
        <mxCell id="Mppwnoug4MWIkZQOMdJh-113" value="" style="shape=partialRectangle;overflow=hidden;connectable=0;fillColor=none;strokeColor=inherit;top=0;left=0;bottom=0;right=0;swimlaneLine=1;" vertex="1" parent="Mppwnoug4MWIkZQOMdJh-112">
          <mxGeometry width="30" height="30" as="geometry">
            <mxRectangle width="30" height="30" as="alternateBounds" />
          </mxGeometry>
        </mxCell>
        <mxCell id="Mppwnoug4MWIkZQOMdJh-114" value="start_date DATE DEFAULT CURRENT_TIMESTAMP" style="shape=partialRectangle;overflow=hidden;connectable=0;fillColor=none;align=left;strokeColor=inherit;top=0;left=0;bottom=0;right=0;spacingLeft=6;swimlaneLine=1;" vertex="1" parent="Mppwnoug4MWIkZQOMdJh-112">
          <mxGeometry x="30" width="440" height="30" as="geometry">
            <mxRectangle width="440" height="30" as="alternateBounds" />
          </mxGeometry>
        </mxCell>
        <mxCell id="Mppwnoug4MWIkZQOMdJh-115" value="" style="shape=tableRow;horizontal=0;startSize=0;swimlaneHead=0;swimlaneBody=0;fillColor=none;collapsible=0;dropTarget=0;points=[[0,0.5],[1,0.5]];portConstraint=eastwest;strokeColor=inherit;top=0;left=0;right=0;bottom=0;swimlaneLine=1;" vertex="1" parent="Mppwnoug4MWIkZQOMdJh-96">
          <mxGeometry y="210" width="470" height="30" as="geometry" />
        </mxCell>
        <mxCell id="Mppwnoug4MWIkZQOMdJh-116" value="" style="shape=partialRectangle;overflow=hidden;connectable=0;fillColor=none;strokeColor=inherit;top=0;left=0;bottom=0;right=0;swimlaneLine=1;" vertex="1" parent="Mppwnoug4MWIkZQOMdJh-115">
          <mxGeometry width="30" height="30" as="geometry">
            <mxRectangle width="30" height="30" as="alternateBounds" />
          </mxGeometry>
        </mxCell>
        <mxCell id="Mppwnoug4MWIkZQOMdJh-117" value="end_date DATE DEFAULT CURRENT_TIMESTAMP + INTERVAL &#39;10 years&#39;" style="shape=partialRectangle;overflow=hidden;connectable=0;fillColor=none;align=left;strokeColor=inherit;top=0;left=0;bottom=0;right=0;spacingLeft=6;swimlaneLine=1;" vertex="1" parent="Mppwnoug4MWIkZQOMdJh-115">
          <mxGeometry x="30" width="440" height="30" as="geometry">
            <mxRectangle width="440" height="30" as="alternateBounds" />
          </mxGeometry>
        </mxCell>
        <mxCell id="Mppwnoug4MWIkZQOMdJh-118" value="" style="shape=tableRow;horizontal=0;startSize=0;swimlaneHead=0;swimlaneBody=0;fillColor=none;collapsible=0;dropTarget=0;points=[[0,0.5],[1,0.5]];portConstraint=eastwest;strokeColor=inherit;top=0;left=0;right=0;bottom=0;swimlaneLine=1;" vertex="1" parent="Mppwnoug4MWIkZQOMdJh-96">
          <mxGeometry y="240" width="470" height="30" as="geometry" />
        </mxCell>
        <mxCell id="Mppwnoug4MWIkZQOMdJh-119" value="" style="shape=partialRectangle;overflow=hidden;connectable=0;fillColor=none;strokeColor=inherit;top=0;left=0;bottom=0;right=0;swimlaneLine=1;" vertex="1" parent="Mppwnoug4MWIkZQOMdJh-118">
          <mxGeometry width="30" height="30" as="geometry">
            <mxRectangle width="30" height="30" as="alternateBounds" />
          </mxGeometry>
        </mxCell>
        <mxCell id="Mppwnoug4MWIkZQOMdJh-120" value="notes VARCHAR(1024)" style="shape=partialRectangle;overflow=hidden;connectable=0;fillColor=none;align=left;strokeColor=inherit;top=0;left=0;bottom=0;right=0;spacingLeft=6;swimlaneLine=1;" vertex="1" parent="Mppwnoug4MWIkZQOMdJh-118">
          <mxGeometry x="30" width="440" height="30" as="geometry">
            <mxRectangle width="440" height="30" as="alternateBounds" />
          </mxGeometry>
        </mxCell>
        <mxCell id="Mppwnoug4MWIkZQOMdJh-121" value="" style="shape=tableRow;horizontal=0;startSize=0;swimlaneHead=0;swimlaneBody=0;fillColor=none;collapsible=0;dropTarget=0;points=[[0,0.5],[1,0.5]];portConstraint=eastwest;strokeColor=inherit;top=0;left=0;right=0;bottom=0;swimlaneLine=1;" vertex="1" parent="Mppwnoug4MWIkZQOMdJh-96">
          <mxGeometry y="270" width="470" height="30" as="geometry" />
        </mxCell>
        <mxCell id="Mppwnoug4MWIkZQOMdJh-122" value="" style="shape=partialRectangle;overflow=hidden;connectable=0;fillColor=none;strokeColor=inherit;top=0;left=0;bottom=0;right=0;swimlaneLine=1;" vertex="1" parent="Mppwnoug4MWIkZQOMdJh-121">
          <mxGeometry width="30" height="30" as="geometry">
            <mxRectangle width="30" height="30" as="alternateBounds" />
          </mxGeometry>
        </mxCell>
        <mxCell id="Mppwnoug4MWIkZQOMdJh-123" value="created_at TIMESTAMPTZ DEFAULT CURRENT_TIMESTAMP" style="shape=partialRectangle;overflow=hidden;connectable=0;fillColor=none;align=left;strokeColor=inherit;top=0;left=0;bottom=0;right=0;spacingLeft=6;swimlaneLine=1;" vertex="1" parent="Mppwnoug4MWIkZQOMdJh-121">
          <mxGeometry x="30" width="440" height="30" as="geometry">
            <mxRectangle width="440" height="30" as="alternateBounds" />
          </mxGeometry>
        </mxCell>
        <mxCell id="Mppwnoug4MWIkZQOMdJh-124" value="" style="shape=tableRow;horizontal=0;startSize=0;swimlaneHead=0;swimlaneBody=0;fillColor=none;collapsible=0;dropTarget=0;points=[[0,0.5],[1,0.5]];portConstraint=eastwest;strokeColor=inherit;top=0;left=0;right=0;bottom=0;swimlaneLine=1;" vertex="1" parent="Mppwnoug4MWIkZQOMdJh-96">
          <mxGeometry y="300" width="470" height="30" as="geometry" />
        </mxCell>
        <mxCell id="Mppwnoug4MWIkZQOMdJh-125" value="" style="shape=partialRectangle;overflow=hidden;connectable=0;fillColor=none;strokeColor=inherit;top=0;left=0;bottom=0;right=0;swimlaneLine=1;" vertex="1" parent="Mppwnoug4MWIkZQOMdJh-124">
          <mxGeometry width="30" height="30" as="geometry">
            <mxRectangle width="30" height="30" as="alternateBounds" />
          </mxGeometry>
        </mxCell>
        <mxCell id="Mppwnoug4MWIkZQOMdJh-126" value="updated_at TIMESTAMPTZ" style="shape=partialRectangle;overflow=hidden;connectable=0;fillColor=none;align=left;strokeColor=inherit;top=0;left=0;bottom=0;right=0;spacingLeft=6;swimlaneLine=1;" vertex="1" parent="Mppwnoug4MWIkZQOMdJh-124">
          <mxGeometry x="30" width="440" height="30" as="geometry">
            <mxRectangle width="440" height="30" as="alternateBounds" />
          </mxGeometry>
        </mxCell>
        <mxCell id="Mppwnoug4MWIkZQOMdJh-127" value="" style="shape=tableRow;horizontal=0;startSize=0;swimlaneHead=0;swimlaneBody=0;fillColor=none;collapsible=0;dropTarget=0;points=[[0,0.5],[1,0.5]];portConstraint=eastwest;strokeColor=inherit;top=0;left=0;right=0;bottom=0;swimlaneLine=1;" vertex="1" parent="Mppwnoug4MWIkZQOMdJh-96">
          <mxGeometry y="330" width="470" height="30" as="geometry" />
        </mxCell>
        <mxCell id="Mppwnoug4MWIkZQOMdJh-128" value="" style="shape=partialRectangle;overflow=hidden;connectable=0;fillColor=none;strokeColor=inherit;top=0;left=0;bottom=0;right=0;swimlaneLine=1;" vertex="1" parent="Mppwnoug4MWIkZQOMdJh-127">
          <mxGeometry width="30" height="30" as="geometry">
            <mxRectangle width="30" height="30" as="alternateBounds" />
          </mxGeometry>
        </mxCell>
        <mxCell id="Mppwnoug4MWIkZQOMdJh-129" value="FOREIGN KEY (dosage_unit) REFERENCES dosage_units(id)" style="shape=partialRectangle;overflow=hidden;connectable=0;fillColor=none;align=left;strokeColor=inherit;top=0;left=0;bottom=0;right=0;spacingLeft=6;swimlaneLine=1;" vertex="1" parent="Mppwnoug4MWIkZQOMdJh-127">
          <mxGeometry x="30" width="440" height="30" as="geometry">
            <mxRectangle width="440" height="30" as="alternateBounds" />
          </mxGeometry>
        </mxCell>
        <mxCell id="Mppwnoug4MWIkZQOMdJh-130" value="" style="shape=tableRow;horizontal=0;startSize=0;swimlaneHead=0;swimlaneBody=0;fillColor=none;collapsible=0;dropTarget=0;points=[[0,0.5],[1,0.5]];portConstraint=eastwest;strokeColor=inherit;top=0;left=0;right=0;bottom=0;swimlaneLine=1;" vertex="1" parent="Mppwnoug4MWIkZQOMdJh-96">
          <mxGeometry y="360" width="470" height="30" as="geometry" />
        </mxCell>
        <mxCell id="Mppwnoug4MWIkZQOMdJh-131" value="" style="shape=partialRectangle;overflow=hidden;connectable=0;fillColor=none;strokeColor=inherit;top=0;left=0;bottom=0;right=0;swimlaneLine=1;" vertex="1" parent="Mppwnoug4MWIkZQOMdJh-130">
          <mxGeometry width="30" height="30" as="geometry">
            <mxRectangle width="30" height="30" as="alternateBounds" />
          </mxGeometry>
        </mxCell>
        <mxCell id="Mppwnoug4MWIkZQOMdJh-132" value="FOREIGN KEY (pet_id) REFERENCES pets(id)" style="shape=partialRectangle;overflow=hidden;connectable=0;fillColor=none;align=left;strokeColor=inherit;top=0;left=0;bottom=0;right=0;spacingLeft=6;swimlaneLine=1;" vertex="1" parent="Mppwnoug4MWIkZQOMdJh-130">
          <mxGeometry x="30" width="440" height="30" as="geometry">
            <mxRectangle width="440" height="30" as="alternateBounds" />
          </mxGeometry>
        </mxCell>
        <mxCell id="Mppwnoug4MWIkZQOMdJh-133" value="medication_schedule" style="shape=table;startSize=30;container=1;collapsible=1;childLayout=tableLayout;fixedRows=1;rowLines=1;fontStyle=1;align=center;resizeLast=1;swimlaneLine=1;shadow=0;fillColor=#D6D9CE;fontColor=#000000;labelBorderColor=none;labelBackgroundColor=none;fontSize=16;strokeColor=#D6D9CE;strokeWidth=2;" vertex="1" parent="1">
          <mxGeometry x="780" y="-170" width="390" height="210" as="geometry" />
        </mxCell>
        <mxCell id="Mppwnoug4MWIkZQOMdJh-134" value="" style="shape=tableRow;horizontal=0;startSize=0;swimlaneHead=0;swimlaneBody=0;fillColor=none;collapsible=0;dropTarget=0;points=[[0,0.5],[1,0.5]];portConstraint=eastwest;strokeColor=inherit;top=0;left=0;right=0;bottom=1;swimlaneLine=1;" vertex="1" parent="Mppwnoug4MWIkZQOMdJh-133">
          <mxGeometry y="30" width="390" height="30" as="geometry" />
        </mxCell>
        <mxCell id="Mppwnoug4MWIkZQOMdJh-135" value="PK" style="shape=partialRectangle;overflow=hidden;connectable=0;fillColor=none;strokeColor=inherit;top=0;left=0;bottom=0;right=0;fontStyle=1;swimlaneLine=1;" vertex="1" parent="Mppwnoug4MWIkZQOMdJh-134">
          <mxGeometry width="30" height="30" as="geometry">
            <mxRectangle width="30" height="30" as="alternateBounds" />
          </mxGeometry>
        </mxCell>
        <mxCell id="Mppwnoug4MWIkZQOMdJh-136" value="id CHAR(36) " style="shape=partialRectangle;overflow=hidden;connectable=0;fillColor=none;align=left;strokeColor=inherit;top=0;left=0;bottom=0;right=0;spacingLeft=6;fontStyle=5;swimlaneLine=1;" vertex="1" parent="Mppwnoug4MWIkZQOMdJh-134">
          <mxGeometry x="30" width="360" height="30" as="geometry">
            <mxRectangle width="360" height="30" as="alternateBounds" />
          </mxGeometry>
        </mxCell>
        <mxCell id="Mppwnoug4MWIkZQOMdJh-137" value="" style="shape=tableRow;horizontal=0;startSize=0;swimlaneHead=0;swimlaneBody=0;fillColor=none;collapsible=0;dropTarget=0;points=[[0,0.5],[1,0.5]];portConstraint=eastwest;strokeColor=inherit;top=0;left=0;right=0;bottom=0;swimlaneLine=1;" vertex="1" parent="Mppwnoug4MWIkZQOMdJh-133">
          <mxGeometry y="60" width="390" height="30" as="geometry" />
        </mxCell>
        <mxCell id="Mppwnoug4MWIkZQOMdJh-138" value="" style="shape=partialRectangle;overflow=hidden;connectable=0;fillColor=none;strokeColor=inherit;top=0;left=0;bottom=0;right=0;swimlaneLine=1;" vertex="1" parent="Mppwnoug4MWIkZQOMdJh-137">
          <mxGeometry width="30" height="30" as="geometry">
            <mxRectangle width="30" height="30" as="alternateBounds" />
          </mxGeometry>
        </mxCell>
        <mxCell id="Mppwnoug4MWIkZQOMdJh-139" value="scheduled_time TIME NOT NULL" style="shape=partialRectangle;overflow=hidden;connectable=0;fillColor=none;align=left;strokeColor=inherit;top=0;left=0;bottom=0;right=0;spacingLeft=6;swimlaneLine=1;" vertex="1" parent="Mppwnoug4MWIkZQOMdJh-137">
          <mxGeometry x="30" width="360" height="30" as="geometry">
            <mxRectangle width="360" height="30" as="alternateBounds" />
          </mxGeometry>
        </mxCell>
        <mxCell id="Mppwnoug4MWIkZQOMdJh-140" value="" style="shape=tableRow;horizontal=0;startSize=0;swimlaneHead=0;swimlaneBody=0;fillColor=none;collapsible=0;dropTarget=0;points=[[0,0.5],[1,0.5]];portConstraint=eastwest;strokeColor=inherit;top=0;left=0;right=0;bottom=0;swimlaneLine=1;" vertex="1" parent="Mppwnoug4MWIkZQOMdJh-133">
          <mxGeometry y="90" width="390" height="30" as="geometry" />
        </mxCell>
        <mxCell id="Mppwnoug4MWIkZQOMdJh-141" value="" style="shape=partialRectangle;overflow=hidden;connectable=0;fillColor=none;strokeColor=inherit;top=0;left=0;bottom=0;right=0;swimlaneLine=1;" vertex="1" parent="Mppwnoug4MWIkZQOMdJh-140">
          <mxGeometry width="30" height="30" as="geometry">
            <mxRectangle width="30" height="30" as="alternateBounds" />
          </mxGeometry>
        </mxCell>
        <mxCell id="Mppwnoug4MWIkZQOMdJh-142" value="medication_id CHAR(36)" style="shape=partialRectangle;overflow=hidden;connectable=0;fillColor=none;align=left;strokeColor=inherit;top=0;left=0;bottom=0;right=0;spacingLeft=6;swimlaneLine=1;" vertex="1" parent="Mppwnoug4MWIkZQOMdJh-140">
          <mxGeometry x="30" width="360" height="30" as="geometry">
            <mxRectangle width="360" height="30" as="alternateBounds" />
          </mxGeometry>
        </mxCell>
        <mxCell id="Mppwnoug4MWIkZQOMdJh-143" value="" style="shape=tableRow;horizontal=0;startSize=0;swimlaneHead=0;swimlaneBody=0;fillColor=none;collapsible=0;dropTarget=0;points=[[0,0.5],[1,0.5]];portConstraint=eastwest;strokeColor=inherit;top=0;left=0;right=0;bottom=0;swimlaneLine=1;" vertex="1" parent="Mppwnoug4MWIkZQOMdJh-133">
          <mxGeometry y="120" width="390" height="30" as="geometry" />
        </mxCell>
        <mxCell id="Mppwnoug4MWIkZQOMdJh-144" value="" style="shape=partialRectangle;overflow=hidden;connectable=0;fillColor=none;strokeColor=inherit;top=0;left=0;bottom=0;right=0;swimlaneLine=1;" vertex="1" parent="Mppwnoug4MWIkZQOMdJh-143">
          <mxGeometry width="30" height="30" as="geometry">
            <mxRectangle width="30" height="30" as="alternateBounds" />
          </mxGeometry>
        </mxCell>
        <mxCell id="Mppwnoug4MWIkZQOMdJh-145" value="created_at TIMESTAMPTZ DEFAULT CURRENT_TIMESTAMP" style="shape=partialRectangle;overflow=hidden;connectable=0;fillColor=none;align=left;strokeColor=inherit;top=0;left=0;bottom=0;right=0;spacingLeft=6;swimlaneLine=1;" vertex="1" parent="Mppwnoug4MWIkZQOMdJh-143">
          <mxGeometry x="30" width="360" height="30" as="geometry">
            <mxRectangle width="360" height="30" as="alternateBounds" />
          </mxGeometry>
        </mxCell>
        <mxCell id="Mppwnoug4MWIkZQOMdJh-146" value="" style="shape=tableRow;horizontal=0;startSize=0;swimlaneHead=0;swimlaneBody=0;fillColor=none;collapsible=0;dropTarget=0;points=[[0,0.5],[1,0.5]];portConstraint=eastwest;strokeColor=inherit;top=0;left=0;right=0;bottom=0;swimlaneLine=1;" vertex="1" parent="Mppwnoug4MWIkZQOMdJh-133">
          <mxGeometry y="150" width="390" height="30" as="geometry" />
        </mxCell>
        <mxCell id="Mppwnoug4MWIkZQOMdJh-147" value="" style="shape=partialRectangle;overflow=hidden;connectable=0;fillColor=none;strokeColor=inherit;top=0;left=0;bottom=0;right=0;swimlaneLine=1;" vertex="1" parent="Mppwnoug4MWIkZQOMdJh-146">
          <mxGeometry width="30" height="30" as="geometry">
            <mxRectangle width="30" height="30" as="alternateBounds" />
          </mxGeometry>
        </mxCell>
        <mxCell id="Mppwnoug4MWIkZQOMdJh-148" value="updated_at TIMESTAMPTZ" style="shape=partialRectangle;overflow=hidden;connectable=0;fillColor=none;align=left;strokeColor=inherit;top=0;left=0;bottom=0;right=0;spacingLeft=6;swimlaneLine=1;" vertex="1" parent="Mppwnoug4MWIkZQOMdJh-146">
          <mxGeometry x="30" width="360" height="30" as="geometry">
            <mxRectangle width="360" height="30" as="alternateBounds" />
          </mxGeometry>
        </mxCell>
        <mxCell id="Mppwnoug4MWIkZQOMdJh-149" value="" style="shape=tableRow;horizontal=0;startSize=0;swimlaneHead=0;swimlaneBody=0;fillColor=none;collapsible=0;dropTarget=0;points=[[0,0.5],[1,0.5]];portConstraint=eastwest;strokeColor=inherit;top=0;left=0;right=0;bottom=0;swimlaneLine=1;" vertex="1" parent="Mppwnoug4MWIkZQOMdJh-133">
          <mxGeometry y="180" width="390" height="30" as="geometry" />
        </mxCell>
        <mxCell id="Mppwnoug4MWIkZQOMdJh-150" value="" style="shape=partialRectangle;overflow=hidden;connectable=0;fillColor=none;strokeColor=inherit;top=0;left=0;bottom=0;right=0;swimlaneLine=1;" vertex="1" parent="Mppwnoug4MWIkZQOMdJh-149">
          <mxGeometry width="30" height="30" as="geometry">
            <mxRectangle width="30" height="30" as="alternateBounds" />
          </mxGeometry>
        </mxCell>
        <mxCell id="Mppwnoug4MWIkZQOMdJh-151" value="FOREIGN KEY medication_id REFERENCES medications(id)" style="shape=partialRectangle;overflow=hidden;connectable=0;fillColor=none;align=left;strokeColor=inherit;top=0;left=0;bottom=0;right=0;spacingLeft=6;swimlaneLine=1;" vertex="1" parent="Mppwnoug4MWIkZQOMdJh-149">
          <mxGeometry x="30" width="360" height="30" as="geometry">
            <mxRectangle width="360" height="30" as="alternateBounds" />
          </mxGeometry>
        </mxCell>
        <mxCell id="Mppwnoug4MWIkZQOMdJh-152" value="medication_log" style="shape=table;startSize=30;container=1;collapsible=1;childLayout=tableLayout;fixedRows=1;rowLines=1;fontStyle=1;align=center;resizeLast=1;swimlaneLine=1;fillColor=#D6D9CE;fontColor=#000000;labelBorderColor=none;labelBackgroundColor=none;fontSize=16;strokeColor=#D6D9CE;strokeWidth=2;" vertex="1" parent="1">
          <mxGeometry x="-30" y="-140" width="520" height="330" as="geometry" />
        </mxCell>
        <mxCell id="Mppwnoug4MWIkZQOMdJh-153" value="" style="shape=tableRow;horizontal=0;startSize=0;swimlaneHead=0;swimlaneBody=0;fillColor=none;collapsible=0;dropTarget=0;points=[[0,0.5],[1,0.5]];portConstraint=eastwest;strokeColor=inherit;top=0;left=0;right=0;bottom=1;swimlaneLine=1;" vertex="1" parent="Mppwnoug4MWIkZQOMdJh-152">
          <mxGeometry y="30" width="520" height="30" as="geometry" />
        </mxCell>
        <mxCell id="Mppwnoug4MWIkZQOMdJh-154" value="PK" style="shape=partialRectangle;overflow=hidden;connectable=0;fillColor=none;strokeColor=inherit;top=0;left=0;bottom=0;right=0;fontStyle=1;swimlaneLine=1;" vertex="1" parent="Mppwnoug4MWIkZQOMdJh-153">
          <mxGeometry width="30" height="30" as="geometry">
            <mxRectangle width="30" height="30" as="alternateBounds" />
          </mxGeometry>
        </mxCell>
        <mxCell id="Mppwnoug4MWIkZQOMdJh-155" value="id CHAR(36) " style="shape=partialRectangle;overflow=hidden;connectable=0;fillColor=none;align=left;strokeColor=inherit;top=0;left=0;bottom=0;right=0;spacingLeft=6;fontStyle=5;swimlaneLine=1;" vertex="1" parent="Mppwnoug4MWIkZQOMdJh-153">
          <mxGeometry x="30" width="490" height="30" as="geometry">
            <mxRectangle width="490" height="30" as="alternateBounds" />
          </mxGeometry>
        </mxCell>
        <mxCell id="Mppwnoug4MWIkZQOMdJh-156" value="" style="shape=tableRow;horizontal=0;startSize=0;swimlaneHead=0;swimlaneBody=0;fillColor=none;collapsible=0;dropTarget=0;points=[[0,0.5],[1,0.5]];portConstraint=eastwest;strokeColor=inherit;top=0;left=0;right=0;bottom=0;swimlaneLine=1;" vertex="1" parent="Mppwnoug4MWIkZQOMdJh-152">
          <mxGeometry y="60" width="520" height="30" as="geometry" />
        </mxCell>
        <mxCell id="Mppwnoug4MWIkZQOMdJh-157" value="" style="shape=partialRectangle;overflow=hidden;connectable=0;fillColor=none;strokeColor=inherit;top=0;left=0;bottom=0;right=0;swimlaneLine=1;" vertex="1" parent="Mppwnoug4MWIkZQOMdJh-156">
          <mxGeometry width="30" height="30" as="geometry">
            <mxRectangle width="30" height="30" as="alternateBounds" />
          </mxGeometry>
        </mxCell>
        <mxCell id="Mppwnoug4MWIkZQOMdJh-158" value="medication_id CHAR(36)" style="shape=partialRectangle;overflow=hidden;connectable=0;fillColor=none;align=left;strokeColor=inherit;top=0;left=0;bottom=0;right=0;spacingLeft=6;swimlaneLine=1;" vertex="1" parent="Mppwnoug4MWIkZQOMdJh-156">
          <mxGeometry x="30" width="490" height="30" as="geometry">
            <mxRectangle width="490" height="30" as="alternateBounds" />
          </mxGeometry>
        </mxCell>
        <mxCell id="Mppwnoug4MWIkZQOMdJh-159" value="" style="shape=tableRow;horizontal=0;startSize=0;swimlaneHead=0;swimlaneBody=0;fillColor=none;collapsible=0;dropTarget=0;points=[[0,0.5],[1,0.5]];portConstraint=eastwest;strokeColor=inherit;top=0;left=0;right=0;bottom=0;swimlaneLine=1;" vertex="1" parent="Mppwnoug4MWIkZQOMdJh-152">
          <mxGeometry y="90" width="520" height="30" as="geometry" />
        </mxCell>
        <mxCell id="Mppwnoug4MWIkZQOMdJh-160" value="" style="shape=partialRectangle;overflow=hidden;connectable=0;fillColor=none;strokeColor=inherit;top=0;left=0;bottom=0;right=0;swimlaneLine=1;" vertex="1" parent="Mppwnoug4MWIkZQOMdJh-159">
          <mxGeometry width="30" height="30" as="geometry">
            <mxRectangle width="30" height="30" as="alternateBounds" />
          </mxGeometry>
        </mxCell>
        <mxCell id="Mppwnoug4MWIkZQOMdJh-161" value="scheduled_medication_id CHAR(36)" style="shape=partialRectangle;overflow=hidden;connectable=0;fillColor=none;align=left;strokeColor=inherit;top=0;left=0;bottom=0;right=0;spacingLeft=6;swimlaneLine=1;" vertex="1" parent="Mppwnoug4MWIkZQOMdJh-159">
          <mxGeometry x="30" width="490" height="30" as="geometry">
            <mxRectangle width="490" height="30" as="alternateBounds" />
          </mxGeometry>
        </mxCell>
        <mxCell id="Mppwnoug4MWIkZQOMdJh-162" value="" style="shape=tableRow;horizontal=0;startSize=0;swimlaneHead=0;swimlaneBody=0;fillColor=none;collapsible=0;dropTarget=0;points=[[0,0.5],[1,0.5]];portConstraint=eastwest;strokeColor=inherit;top=0;left=0;right=0;bottom=0;swimlaneLine=1;" vertex="1" parent="Mppwnoug4MWIkZQOMdJh-152">
          <mxGeometry y="120" width="520" height="30" as="geometry" />
        </mxCell>
        <mxCell id="Mppwnoug4MWIkZQOMdJh-163" value="" style="shape=partialRectangle;overflow=hidden;connectable=0;fillColor=none;strokeColor=inherit;top=0;left=0;bottom=0;right=0;swimlaneLine=1;" vertex="1" parent="Mppwnoug4MWIkZQOMdJh-162">
          <mxGeometry width="30" height="30" as="geometry">
            <mxRectangle width="30" height="30" as="alternateBounds" />
          </mxGeometry>
        </mxCell>
        <mxCell id="Mppwnoug4MWIkZQOMdJh-164" value="administering_user_id CHAR(36)" style="shape=partialRectangle;overflow=hidden;connectable=0;fillColor=none;align=left;strokeColor=inherit;top=0;left=0;bottom=0;right=0;spacingLeft=6;swimlaneLine=1;" vertex="1" parent="Mppwnoug4MWIkZQOMdJh-162">
          <mxGeometry x="30" width="490" height="30" as="geometry">
            <mxRectangle width="490" height="30" as="alternateBounds" />
          </mxGeometry>
        </mxCell>
        <mxCell id="Mppwnoug4MWIkZQOMdJh-165" value="" style="shape=tableRow;horizontal=0;startSize=0;swimlaneHead=0;swimlaneBody=0;fillColor=none;collapsible=0;dropTarget=0;points=[[0,0.5],[1,0.5]];portConstraint=eastwest;strokeColor=inherit;top=0;left=0;right=0;bottom=0;swimlaneLine=1;" vertex="1" parent="Mppwnoug4MWIkZQOMdJh-152">
          <mxGeometry y="150" width="520" height="30" as="geometry" />
        </mxCell>
        <mxCell id="Mppwnoug4MWIkZQOMdJh-166" value="" style="shape=partialRectangle;overflow=hidden;connectable=0;fillColor=none;strokeColor=inherit;top=0;left=0;bottom=0;right=0;swimlaneLine=1;" vertex="1" parent="Mppwnoug4MWIkZQOMdJh-165">
          <mxGeometry width="30" height="30" as="geometry">
            <mxRectangle width="30" height="30" as="alternateBounds" />
          </mxGeometry>
        </mxCell>
        <mxCell id="Mppwnoug4MWIkZQOMdJh-167" value="administration_time TIMESTAMPTZ NOT NULL" style="shape=partialRectangle;overflow=hidden;connectable=0;fillColor=none;align=left;strokeColor=inherit;top=0;left=0;bottom=0;right=0;spacingLeft=6;swimlaneLine=1;" vertex="1" parent="Mppwnoug4MWIkZQOMdJh-165">
          <mxGeometry x="30" width="490" height="30" as="geometry">
            <mxRectangle width="490" height="30" as="alternateBounds" />
          </mxGeometry>
        </mxCell>
        <mxCell id="Mppwnoug4MWIkZQOMdJh-193" value="" style="shape=tableRow;horizontal=0;startSize=0;swimlaneHead=0;swimlaneBody=0;fillColor=none;collapsible=0;dropTarget=0;points=[[0,0.5],[1,0.5]];portConstraint=eastwest;strokeColor=inherit;top=0;left=0;right=0;bottom=0;swimlaneLine=1;" vertex="1" parent="Mppwnoug4MWIkZQOMdJh-152">
          <mxGeometry y="180" width="520" height="30" as="geometry" />
        </mxCell>
        <mxCell id="Mppwnoug4MWIkZQOMdJh-194" value="" style="shape=partialRectangle;overflow=hidden;connectable=0;fillColor=none;strokeColor=inherit;top=0;left=0;bottom=0;right=0;swimlaneLine=1;" vertex="1" parent="Mppwnoug4MWIkZQOMdJh-193">
          <mxGeometry width="30" height="30" as="geometry">
            <mxRectangle width="30" height="30" as="alternateBounds" />
          </mxGeometry>
        </mxCell>
        <mxCell id="Mppwnoug4MWIkZQOMdJh-195" value="administration_time TIMESTAMPTZ NOT NULL" style="shape=partialRectangle;overflow=hidden;connectable=0;fillColor=none;align=left;strokeColor=inherit;top=0;left=0;bottom=0;right=0;spacingLeft=6;swimlaneLine=1;" vertex="1" parent="Mppwnoug4MWIkZQOMdJh-193">
          <mxGeometry x="30" width="490" height="30" as="geometry">
            <mxRectangle width="490" height="30" as="alternateBounds" />
          </mxGeometry>
        </mxCell>
        <mxCell id="Mppwnoug4MWIkZQOMdJh-168" value="" style="shape=tableRow;horizontal=0;startSize=0;swimlaneHead=0;swimlaneBody=0;fillColor=none;collapsible=0;dropTarget=0;points=[[0,0.5],[1,0.5]];portConstraint=eastwest;strokeColor=inherit;top=0;left=0;right=0;bottom=0;swimlaneLine=1;" vertex="1" parent="Mppwnoug4MWIkZQOMdJh-152">
          <mxGeometry y="210" width="520" height="30" as="geometry" />
        </mxCell>
        <mxCell id="Mppwnoug4MWIkZQOMdJh-169" value="" style="shape=partialRectangle;overflow=hidden;connectable=0;fillColor=none;strokeColor=inherit;top=0;left=0;bottom=0;right=0;swimlaneLine=1;" vertex="1" parent="Mppwnoug4MWIkZQOMdJh-168">
          <mxGeometry width="30" height="30" as="geometry">
            <mxRectangle width="30" height="30" as="alternateBounds" />
          </mxGeometry>
        </mxCell>
        <mxCell id="Mppwnoug4MWIkZQOMdJh-170" value="time_logged TIMESTAMPTZ DEFAULT CURRENT_TIMESTAMP" style="shape=partialRectangle;overflow=hidden;connectable=0;fillColor=none;align=left;strokeColor=inherit;top=0;left=0;bottom=0;right=0;spacingLeft=6;swimlaneLine=1;" vertex="1" parent="Mppwnoug4MWIkZQOMdJh-168">
          <mxGeometry x="30" width="490" height="30" as="geometry">
            <mxRectangle width="490" height="30" as="alternateBounds" />
          </mxGeometry>
        </mxCell>
        <mxCell id="Mppwnoug4MWIkZQOMdJh-171" value="" style="shape=tableRow;horizontal=0;startSize=0;swimlaneHead=0;swimlaneBody=0;fillColor=none;collapsible=0;dropTarget=0;points=[[0,0.5],[1,0.5]];portConstraint=eastwest;strokeColor=inherit;top=0;left=0;right=0;bottom=0;swimlaneLine=1;" vertex="1" parent="Mppwnoug4MWIkZQOMdJh-152">
          <mxGeometry y="240" width="520" height="30" as="geometry" />
        </mxCell>
        <mxCell id="Mppwnoug4MWIkZQOMdJh-172" value="" style="shape=partialRectangle;overflow=hidden;connectable=0;fillColor=none;strokeColor=inherit;top=0;left=0;bottom=0;right=0;swimlaneLine=1;" vertex="1" parent="Mppwnoug4MWIkZQOMdJh-171">
          <mxGeometry width="30" height="30" as="geometry">
            <mxRectangle width="30" height="30" as="alternateBounds" />
          </mxGeometry>
        </mxCell>
        <mxCell id="Mppwnoug4MWIkZQOMdJh-173" value="FOREIGN KEY administering_user_id REFERENCES users(id)" style="shape=partialRectangle;overflow=hidden;connectable=0;fillColor=none;align=left;strokeColor=inherit;top=0;left=0;bottom=0;right=0;spacingLeft=6;swimlaneLine=1;" vertex="1" parent="Mppwnoug4MWIkZQOMdJh-171">
          <mxGeometry x="30" width="490" height="30" as="geometry">
            <mxRectangle width="490" height="30" as="alternateBounds" />
          </mxGeometry>
        </mxCell>
        <mxCell id="Mppwnoug4MWIkZQOMdJh-174" value="" style="shape=tableRow;horizontal=0;startSize=0;swimlaneHead=0;swimlaneBody=0;fillColor=none;collapsible=0;dropTarget=0;points=[[0,0.5],[1,0.5]];portConstraint=eastwest;strokeColor=inherit;top=0;left=0;right=0;bottom=0;swimlaneLine=1;" vertex="1" parent="Mppwnoug4MWIkZQOMdJh-152">
          <mxGeometry y="270" width="520" height="30" as="geometry" />
        </mxCell>
        <mxCell id="Mppwnoug4MWIkZQOMdJh-175" value="" style="shape=partialRectangle;overflow=hidden;connectable=0;fillColor=none;strokeColor=inherit;top=0;left=0;bottom=0;right=0;swimlaneLine=1;" vertex="1" parent="Mppwnoug4MWIkZQOMdJh-174">
          <mxGeometry width="30" height="30" as="geometry">
            <mxRectangle width="30" height="30" as="alternateBounds" />
          </mxGeometry>
        </mxCell>
        <mxCell id="Mppwnoug4MWIkZQOMdJh-176" value="FOREIGN KEY medication_id REFERENCES medications(id)" style="shape=partialRectangle;overflow=hidden;connectable=0;fillColor=none;align=left;strokeColor=inherit;top=0;left=0;bottom=0;right=0;spacingLeft=6;swimlaneLine=1;" vertex="1" parent="Mppwnoug4MWIkZQOMdJh-174">
          <mxGeometry x="30" width="490" height="30" as="geometry">
            <mxRectangle width="490" height="30" as="alternateBounds" />
          </mxGeometry>
        </mxCell>
        <mxCell id="Mppwnoug4MWIkZQOMdJh-177" value="" style="shape=tableRow;horizontal=0;startSize=0;swimlaneHead=0;swimlaneBody=0;fillColor=none;collapsible=0;dropTarget=0;points=[[0,0.5],[1,0.5]];portConstraint=eastwest;strokeColor=inherit;top=0;left=0;right=0;bottom=0;swimlaneLine=1;" vertex="1" parent="Mppwnoug4MWIkZQOMdJh-152">
          <mxGeometry y="300" width="520" height="30" as="geometry" />
        </mxCell>
        <mxCell id="Mppwnoug4MWIkZQOMdJh-178" value="" style="shape=partialRectangle;overflow=hidden;connectable=0;fillColor=none;strokeColor=inherit;top=0;left=0;bottom=0;right=0;swimlaneLine=1;" vertex="1" parent="Mppwnoug4MWIkZQOMdJh-177">
          <mxGeometry width="30" height="30" as="geometry">
            <mxRectangle width="30" height="30" as="alternateBounds" />
          </mxGeometry>
        </mxCell>
        <mxCell id="Mppwnoug4MWIkZQOMdJh-179" value="FOREIGN KEY scheduled_medication_id REFERENCES medication_schedule(id)" style="shape=partialRectangle;overflow=hidden;connectable=0;fillColor=none;align=left;strokeColor=inherit;top=0;left=0;bottom=0;right=0;spacingLeft=6;swimlaneLine=1;" vertex="1" parent="Mppwnoug4MWIkZQOMdJh-177">
          <mxGeometry x="30" width="490" height="30" as="geometry">
            <mxRectangle width="490" height="30" as="alternateBounds" />
          </mxGeometry>
        </mxCell>
        <mxCell id="Mppwnoug4MWIkZQOMdJh-180" value="" style="edgeStyle=entityRelationEdgeStyle;fontSize=12;html=1;endArrow=ERmandOne;startArrow=ERmandOne;rounded=0;swimlaneLine=1;strokeColor=#FF2908;strokeWidth=5;shadow=1;curved=1;" edge="1" parent="1" source="Mppwnoug4MWIkZQOMdJh-2" target="Mppwnoug4MWIkZQOMdJh-33">
          <mxGeometry width="100" height="100" relative="1" as="geometry">
            <mxPoint x="-320" y="680" as="sourcePoint" />
            <mxPoint x="-250" y="170" as="targetPoint" />
            <Array as="points">
              <mxPoint x="-450" y="630" />
              <mxPoint x="-360" y="640" />
              <mxPoint x="-720" y="-70" />
              <mxPoint x="-790" y="-60" />
            </Array>
          </mxGeometry>
        </mxCell>
        <mxCell id="Mppwnoug4MWIkZQOMdJh-183" value="" style="edgeStyle=entityRelationEdgeStyle;fontSize=12;html=1;endArrow=ERmandOne;startArrow=ERmandOne;rounded=0;swimlaneLine=1;strokeColor=#FF2908;strokeWidth=5;shadow=1;curved=1;" edge="1" parent="1" source="Mppwnoug4MWIkZQOMdJh-2" target="Mppwnoug4MWIkZQOMdJh-46">
          <mxGeometry width="100" height="100" relative="1" as="geometry">
            <mxPoint x="30" y="520" as="sourcePoint" />
            <mxPoint x="130" y="420" as="targetPoint" />
          </mxGeometry>
        </mxCell>
        <mxCell id="Mppwnoug4MWIkZQOMdJh-184" value="" style="edgeStyle=entityRelationEdgeStyle;fontSize=12;html=1;endArrow=ERmandOne;startArrow=ERmandOne;rounded=0;swimlaneLine=1;strokeColor=#FF2908;strokeWidth=5;shadow=1;curved=1;" edge="1" parent="1" source="Mppwnoug4MWIkZQOMdJh-27" target="Mppwnoug4MWIkZQOMdJh-49">
          <mxGeometry width="100" height="100" relative="1" as="geometry">
            <mxPoint x="30" y="520" as="sourcePoint" />
            <mxPoint x="130" y="420" as="targetPoint" />
          </mxGeometry>
        </mxCell>
        <mxCell id="Mppwnoug4MWIkZQOMdJh-185" value="" style="edgeStyle=entityRelationEdgeStyle;fontSize=12;html=1;endArrow=ERmandOne;startArrow=ERmandOne;rounded=0;swimlaneLine=1;strokeColor=#FF2908;strokeWidth=5;shadow=1;curved=1;" edge="1" parent="1" source="Mppwnoug4MWIkZQOMdJh-27" target="Mppwnoug4MWIkZQOMdJh-77">
          <mxGeometry width="100" height="100" relative="1" as="geometry">
            <mxPoint y="450" as="sourcePoint" />
            <mxPoint x="100" y="350" as="targetPoint" />
          </mxGeometry>
        </mxCell>
        <mxCell id="Mppwnoug4MWIkZQOMdJh-186" value="" style="edgeStyle=entityRelationEdgeStyle;fontSize=12;html=1;endArrow=ERmandOne;startArrow=ERmandOne;rounded=0;swimlaneLine=1;strokeColor=#FF2908;strokeWidth=5;shadow=1;curved=1;" edge="1" parent="1" source="Mppwnoug4MWIkZQOMdJh-59" target="Mppwnoug4MWIkZQOMdJh-103">
          <mxGeometry width="100" height="100" relative="1" as="geometry">
            <mxPoint x="30" y="520" as="sourcePoint" />
            <mxPoint x="130" y="420" as="targetPoint" />
          </mxGeometry>
        </mxCell>
        <mxCell id="Mppwnoug4MWIkZQOMdJh-187" value="" style="edgeStyle=entityRelationEdgeStyle;fontSize=12;html=1;endArrow=ERmandOne;startArrow=ERmandOne;rounded=0;swimlaneLine=1;strokeColor=#FF2908;strokeWidth=5;shadow=1;curved=1;" edge="1" parent="1" source="Mppwnoug4MWIkZQOMdJh-90" target="Mppwnoug4MWIkZQOMdJh-109">
          <mxGeometry width="100" height="100" relative="1" as="geometry">
            <mxPoint x="-50" y="610" as="sourcePoint" />
            <mxPoint x="50" y="510" as="targetPoint" />
          </mxGeometry>
        </mxCell>
        <mxCell id="Mppwnoug4MWIkZQOMdJh-188" value="" style="edgeStyle=entityRelationEdgeStyle;fontSize=12;html=1;endArrow=ERmandOne;startArrow=ERmandOne;rounded=0;swimlaneLine=1;strokeColor=#FF2908;strokeWidth=5;shadow=1;curved=1;" edge="1" parent="1" target="Mppwnoug4MWIkZQOMdJh-97">
          <mxGeometry width="100" height="100" relative="1" as="geometry">
            <mxPoint x="1130" y="-110" as="sourcePoint" />
            <mxPoint x="200" y="375" as="targetPoint" />
          </mxGeometry>
        </mxCell>
        <mxCell id="Mppwnoug4MWIkZQOMdJh-189" value="" style="edgeStyle=entityRelationEdgeStyle;fontSize=12;html=1;endArrow=ERmandOne;startArrow=ERmandOne;rounded=0;swimlaneLine=1;strokeColor=#FF2908;strokeWidth=5;shadow=1;curved=1;" edge="1" parent="1" source="Mppwnoug4MWIkZQOMdJh-156" target="Mppwnoug4MWIkZQOMdJh-97">
          <mxGeometry width="100" height="100" relative="1" as="geometry">
            <mxPoint x="740" y="620" as="sourcePoint" />
            <mxPoint x="840" y="520" as="targetPoint" />
          </mxGeometry>
        </mxCell>
        <mxCell id="Mppwnoug4MWIkZQOMdJh-190" value="" style="edgeStyle=entityRelationEdgeStyle;fontSize=12;html=1;endArrow=ERmandOne;startArrow=ERmandOne;rounded=0;swimlaneLine=1;strokeColor=#FF2908;strokeWidth=5;shadow=1;curved=1;" edge="1" parent="1" source="Mppwnoug4MWIkZQOMdJh-134" target="Mppwnoug4MWIkZQOMdJh-159">
          <mxGeometry width="100" height="100" relative="1" as="geometry">
            <mxPoint x="230" y="760" as="sourcePoint" />
            <mxPoint x="330" y="660" as="targetPoint" />
          </mxGeometry>
        </mxCell>
        <mxCell id="Mppwnoug4MWIkZQOMdJh-191" value="" style="edgeStyle=entityRelationEdgeStyle;fontSize=12;html=1;endArrow=ERmandOne;startArrow=ERmandOne;rounded=0;swimlaneLine=1;strokeColor=#FF2908;strokeWidth=5;shadow=1;curved=1;" edge="1" parent="1" source="Mppwnoug4MWIkZQOMdJh-1" target="Mppwnoug4MWIkZQOMdJh-162">
          <mxGeometry width="100" height="100" relative="1" as="geometry">
            <mxPoint x="-660" y="710" as="sourcePoint" />
            <mxPoint x="240" y="620" as="targetPoint" />
          </mxGeometry>
        </mxCell>
      </root>
    </mxGraphModel>
  </diagram>
</mxfile>
